<svg xmlns="http://www.w3.org/2000/svg" width="20" height="20" viewBox="0 0 20 20">
    <g>
        <path fill="#4c4c6f" d="M20.313-7.187a10 10 0 0 0-10-10 10 10 0 0 0-10 10A10 10 0 0 0 8.75 2.692V-4.3H6.21v-2.887h2.54v-2.2a3.528 3.528 0 0 1 3.777-3.89 15.391 15.391 0 0 1 2.239.2v2.46H13.5a1.445 1.445 0 0 0-1.629 1.562v1.877h2.773L14.2-4.3h-2.33v6.992a10 10 0 0 0 8.443-9.879z" transform="translate(-5206 5151) translate(5205.688 -5133.813)"/>
        <path fill="none" d="M0 0H20V20H0z" transform="translate(-5206 5151) translate(5206 -5151)"/>
    </g>
</svg>
