<svg xmlns="http://www.w3.org/2000/svg" width="20" height="20" viewBox="0 0 20 20">
    <g>
        <path fill="#4c4c6f" d="M8.754-11.992A4.481 4.481 0 0 0 4.266-7.5a4.481 4.481 0 0 0 4.488 4.484A4.481 4.481 0 0 0 13.242-7.5a4.481 4.481 0 0 0-4.488-4.492zm0 7.406A2.923 2.923 0 0 1 5.836-7.5a2.921 2.921 0 0 1 2.918-2.918A2.921 2.921 0 0 1 11.672-7.5a2.923 2.923 0 0 1-2.918 2.914zm5.719-7.59a1.047 1.047 0 0 0-1.047-1.047 1.047 1.047 0 0 0-1.047 1.047 1.044 1.044 0 0 0 1.047 1.047 1.044 1.044 0 0 0 1.047-1.047zm2.973 1.063a5.181 5.181 0 0 0-1.414-3.668 5.215 5.215 0 0 0-3.669-1.419c-1.445-.082-5.777-.082-7.223 0a5.207 5.207 0 0 0-3.668 1.41 5.2 5.2 0 0 0-1.413 3.673c-.082 1.445-.082 5.777 0 7.223A5.181 5.181 0 0 0 1.473-.227a5.221 5.221 0 0 0 3.668 1.415c1.445.082 5.777.082 7.223 0a5.181 5.181 0 0 0 3.667-1.415 5.215 5.215 0 0 0 1.414-3.668c.082-1.445.082-5.773 0-7.218zm-1.867 8.77A2.954 2.954 0 0 1 13.914-.68c-1.152.457-3.887.352-5.16.352s-4.012.1-5.16-.352A2.954 2.954 0 0 1 1.93-2.344C1.473-3.5 1.578-6.23 1.578-7.5s-.1-4.012.352-5.16a2.954 2.954 0 0 1 1.664-1.664c1.152-.457 3.887-.352 5.16-.352s4.012-.1 5.16.352a2.954 2.954 0 0 1 1.664 1.664c.457 1.152.352 3.887.352 5.16s.105 4.008-.352 5.156z" transform="translate(-5212 5283) translate(5213.003 -5265.743)"/>
        <path fill="none" d="M0 0H20V20H0z" transform="translate(-5212 5283) translate(5212 -5283)"/>
    </g>
</svg>
