<svg xmlns="http://www.w3.org/2000/svg" width="20" height="20" viewBox="0 0 20 20">
    <g>
        <path fill="#4c4c6f" d="M16.714-16.25H1.282A1.291 1.291 0 0 0 0-14.952V.452a1.291 1.291 0 0 0 1.282 1.3h15.432A1.3 1.3 0 0 0 18 .452v-15.4a1.3 1.3 0 0 0-1.286-1.302zM5.44-.821H2.772v-8.59h2.672v8.59zm-1.334-9.764a1.548 1.548 0 0 1-1.547-1.547 1.548 1.548 0 0 1 1.547-1.547 1.55 1.55 0 0 1 1.547 1.547 1.545 1.545 0 0 1-1.547 1.547zM15.441-.821h-2.668V-5c0-1-.02-2.278-1.386-2.278-1.39 0-1.6 1.085-1.6 2.206v4.251H7.116v-8.59h2.559v1.173h.036a2.81 2.81 0 0 1 2.527-1.386c2.7 0 3.2 1.78 3.2 4.094z" transform="translate(-5207 5054) translate(5208 -5036.75)"/>
        <path fill="none" d="M0 0H20V20H0z" transform="translate(-5207 5054) translate(5207 -5054)"/>
    </g>
</svg>
