<svg xmlns="http://www.w3.org/2000/svg" width="20" height="20" viewBox="0 0 20 20">
    <g>
        <path fill="#4c4c6f" d="M17.019 17.338a5.61 5.61 0 1 1-5.61-5.648 5.629 5.629 0 0 1 5.61 5.648m6.154 0c0 2.936-1.256 5.317-2.8 5.317s-2.8-2.381-2.8-5.317 1.256-5.317 2.8-5.317 2.8 2.381 2.8 5.317m2.517 0c0 2.631-.442 4.763-.986 4.763s-.986-2.133-.986-4.763.442-4.763.987-4.763.986 2.133.986 4.763" transform="translate(-5125 5464) translate(5119.257 -5471.347)"/>
        <path fill="none" d="M0 0H20V20H0z" transform="translate(-5125 5464) translate(5125 -5464)"/>
    </g>
</svg>
