<svg xmlns="http://www.w3.org/2000/svg" width="20" height="20" viewBox="0 0 20 20">
    <g>
        <path fill="#4c4c6f" d="M10-17.187a10 10 0 0 0-10 10 10 10 0 0 0 10 10 10 10 0 0 0 10-10 10 10 0 0 0-10-10zm4.911 6.851L13.27-2.6c-.121.548-.448.681-.9.423L9.87-4.02 8.661-2.861a.631.631 0 0 1-.5.246l.177-2.544 4.633-4.185c.2-.177-.044-.278-.31-.1l-5.726 3.6-2.468-.77c-.536-.169-.548-.536.113-.794l9.641-3.718c.444-.158.835.112.69.789z" transform="translate(-5206 5612) translate(5206 -5594.813)"/>
        <path fill="none" d="M0 0H20V20H0z" transform="translate(-5206 5612) translate(5206 -5612)"/>
    </g>
</svg>
