<svg xmlns="http://www.w3.org/2000/svg" width="20" height="20" viewBox="0 0 20 20">
    <g>
        <path fill="#4c4c6f" d="M17.944-11.574A8.811 8.811 0 0 0 20-13.693a8.218 8.218 0 0 1-2.36.634 4.088 4.088 0 0 0 1.8-2.259 8.07 8.07 0 0 1-2.6.99 4.089 4.089 0 0 0-2.995-1.294 4.1 4.1 0 0 0-4.1 4.1 4.627 4.627 0 0 0 .1.939 11.651 11.651 0 0 1-8.445-4.29A4.068 4.068 0 0 0 .838-12.8a4.1 4.1 0 0 0 1.827 3.409 4.128 4.128 0 0 1-1.853-.52v.051A4.1 4.1 0 0 0 4.1-5.838a4.334 4.334 0 0 1-1.08.138 5.166 5.166 0 0 1-.774-.063 4.106 4.106 0 0 0 3.833 2.844A8.209 8.209 0 0 1 .99-1.167 8.483 8.483 0 0 1 0-1.218 11.583 11.583 0 0 0 6.294.622a11.583 11.583 0 0 0 11.663-11.663c0-.177 0-.359-.013-.533z" transform="translate(-5206 5355) translate(5206 -5338)"/>
        <path fill="none" d="M0 0H20V20H0z" transform="translate(-5206 5355) translate(5206 -5355)"/>
    </g>
</svg>
