<svg xmlns="http://www.w3.org/2000/svg" width="20" height="20" viewBox="0 0 20 20">
    <g>
        <path fill="#4c4c6f" d="M20.165-12.8a2.513 2.513 0 0 0-1.768-1.78c-1.56-.42-7.814-.42-7.814-.42s-6.254 0-7.814.421A2.513 2.513 0 0 0 1-12.8a26.362 26.362 0 0 0-.417 4.845A26.362 26.362 0 0 0 1-3.109a2.476 2.476 0 0 0 1.769 1.751c1.56.421 7.814.421 7.814.421s6.254 0 7.814-.421a2.476 2.476 0 0 0 1.768-1.751 26.362 26.362 0 0 0 .418-4.845 26.362 26.362 0 0 0-.418-4.846zM8.538-4.981v-5.947l5.227 2.974z" transform="translate(-5224 4902) translate(5223.417 -4884)"/>
        <path fill="none" d="M0 0H20V20H0z" transform="translate(-5224 4902) translate(5224 -4902)"/>
    </g>
</svg>
