<svg xmlns="http://www.w3.org/2000/svg" width="48" height="48" viewBox="0 0 48 48">
    <g opacity="0.5">
        <path fill="none" d="M0 0H48V48H0z"/>
        <path fill="lime" d="M40.578 9.776l-20 20a1.992 1.992 0 0 1-2.82 0l-5.66-5.66a1.992 1.992 0 0 1 0-2.82 1.992 1.992 0 0 1 2.82 0l4.24 4.24 18.58-18.58a1.992 1.992 0 0 1 2.82 0 1.974 1.974 0 0 1 .02 2.82zm-11.04-6.3A20 20 0 1 0 41.318 27.2a19.343 19.343 0 0 0 .42-8.44 2.012 2.012 0 0 0-3.4-1.08 2.013 2.013 0 0 0-.54 1.78 15.038 15.038 0 0 1-1.04 8.52 16.258 16.258 0 0 1-13.22 9.94A16.005 16.005 0 1 1 29.3 7.756a2 2 0 0 0 2.34-.36 2.006 2.006 0 0 0-.48-3.2c-.542-.24-1.082-.496-1.622-.72z" transform="translate(2.002 2.004)"/>
    </g>
</svg>
