<svg xmlns="http://www.w3.org/2000/svg" width="24" height="24" viewBox="0 0 24 24">
    <path fill="#202060" d="M16.174 6.942L23 5l-7.261.522L17 3l-3 2 1-3-3.032 2.274A7.842 7.842 0 0 0 10 4H5l1.049 1.049a8.031 8.031 0 0 0-1.813 1.412L1 7l2.234.745a7.916 7.916 0 0 0-1.083 2.721L1 12h1a7.746 7.746 0 0 0 .134 1.422l-.021.005a10 10 0 0 0 4.341 6.88c.11.075.22.15.332.221l.123.074a9.907 9.907 0 0 0 5.2 1.472c.709 0 2.776-.074 2.776-.5A10 10 0 0 0 11 15.012V15a8.891 8.891 0 0 1 .456-2.8 3.5 3.5 0 0 0 2.59 1.751A2.5 2.5 0 0 0 19 13.5c0-.876-2.1-5.539-2.1-5.539a8.028 8.028 0 0 0-.726-1.019zm-5.206 4.128c.028 0 .057 0 .086.006v.01c-.029-.004-.054-.012-.086-.016z"/>
    <path fill="none" d="M0 0H24V24H0z"/>
</svg>
