<svg xmlns="http://www.w3.org/2000/svg" width="24" height="24" viewBox="0 0 24 24">
    <defs>
        <style>
            .cls-1{fill:#e84142}
        </style>
    </defs>
    <g id="avalanche_logo" transform="translate(7239 174)">
        <g id="AVALANCHE" transform="translate(-7240.631 -175)">
            <path id="Path_344" d="M2.6 325.457h.343l.96 2.229h-.452l-.208-.51h-.967l-.2.51h-.445zm.5 1.379l-.343-.907-.35.907zm1.225-1.379h.457l.608 1.685.627-1.685h.428l-.9 2.229h-.34zm3.537 0h.348l.96 2.229h-.453l-.208-.51h-.966l-.2.51H6.9zm.5 1.379l-.343-.907-.35.907zm1.677-1.379h.4v1.87h.948v.359h-1.339zm2.984 0h.343l.96 2.229h-.453l-.208-.51h-.967l-.2.51h-.444zm.5 1.379l-.343-.907-.35.907zm1.677-1.379h.526l1.08 1.656h.006v-1.656h.4v2.229h-.5l-1.1-1.71h-.006v1.71h-.4zm4.666.523a.659.659 0 0 0-.239-.176.629.629 0 0 0-.23-.044.767.767 0 0 0-.315.063.693.693 0 0 0-.239.17.776.776 0 0 0-.157.252.892.892 0 0 0-.054.312.984.984 0 0 0 .054.331.8.8 0 0 0 .157.261.73.73 0 0 0 .239.173.767.767 0 0 0 .315.063.578.578 0 0 0 .261-.063.73.73 0 0 0 .239-.208l.327.233a.892.892 0 0 1-.368.3 1.148 1.148 0 0 1-.463.094 1.339 1.339 0 0 1-.475-.082 1.135 1.135 0 0 1-.372-.236 1.115 1.115 0 0 1-.242-.368 1.238 1.238 0 0 1-.088-.475 1.279 1.279 0 0 1 .088-.485 1.1 1.1 0 0 1 .242-.375 1.07 1.07 0 0 1 .372-.236 1.294 1.294 0 0 1 .475-.085 1.057 1.057 0 0 1 .419.082.96.96 0 0 1 .362.271zm1.255-.523h.4v.888h1.042v-.888h.4v2.229h-.4v-.986h-1.032v.982h-.4zm2.964 0h1.477v.359h-1.08v.548h1.023v.359h-1.011v.6h1.137v.359H24.1z" class="cls-1" transform="translate(0 -308.375)"/>
            <path id="Path_345" d="M13.4 23.3h-1.65a1.493 1.493 0 0 1-.7-.076.472.472 0 0 1-.215-.37c-.008-.139.089-.309.283-.649l3.612-6.333c.2-.345.295-.517.42-.581a.472.472 0 0 1 .431 0c.125.064.224.236.421.581l.833 1.456a2.089 2.089 0 0 1 .247.508.945.945 0 0 1 0 .438 2.089 2.089 0 0 1-.246.508l-2.16 3.782a2.092 2.092 0 0 1-.317.476.945.945 0 0 1-.383.222 2.094 2.094 0 0 1-.576.038z" class="cls-1" transform="translate(-8.912 -7.98)"/>
            <path id="Path_346" d="M192.079 167.929h-1.913a1.5 1.5 0 0 1-.71-.076.472.472 0 0 1-.214-.372c-.007-.14.092-.311.291-.652l.955-1.639c.2-.337.294-.505.418-.568a.472.472 0 0 1 .427 0c.124.063.223.231.419.568l.958 1.639c.2.341.3.512.292.652a.472.472 0 0 1-.214.373 1.5 1.5 0 0 1-.709.075z" class="cls-1" transform="translate(-181.704 -152.609)"/>
            <path id="Path_347" d="M463.4 23.3h-1.65a1.493 1.493 0 0 1-.7-.076.472.472 0 0 1-.215-.37c-.008-.139.089-.309.283-.649l3.612-6.333c.2-.345.295-.517.42-.581a.472.472 0 0 1 .431 0c.125.064.224.236.421.581l.833 1.456a2.089 2.089 0 0 1 .247.508.945.945 0 0 1 0 .438 2.09 2.09 0 0 1-.246.508l-2.16 3.782a2.091 2.091 0 0 1-.317.476.945.945 0 0 1-.383.222 2.094 2.094 0 0 1-.576.038z" class="cls-1" transform="translate(-444.742 -7.98)"/>
            <path id="Path_348" d="M642.079 167.929h-1.913a1.5 1.5 0 0 1-.71-.076.472.472 0 0 1-.214-.372c-.007-.14.092-.311.291-.652l.955-1.639c.2-.337.294-.505.418-.568a.472.472 0 0 1 .427 0c.124.063.223.231.419.568l.958 1.639c.2.341.3.512.292.652a.472.472 0 0 1-.214.373 1.5 1.5 0 0 1-.709.075z" class="cls-1" transform="translate(-617.534 -152.609)"/>
            <path id="Path_349" d="M239.417 7h-1.692a1.492 1.492 0 0 0-.7.076.472.472 0 0 0-.215.37c-.008.139.089.309.282.649l3.6 6.323c.2.353.3.529.428.593a.472.472 0 0 0 .435 0c.126-.067.223-.245.417-.6l.862-1.581a2.084 2.084 0 0 0 .233-.505.945.945 0 0 0-.006-.432 2.086 2.086 0 0 0-.247-.5l-2.125-3.659a2.092 2.092 0 0 0-.318-.471.945.945 0 0 0-.381-.22 2.091 2.091 0 0 0-.573-.043z" class="cls-1" transform="translate(-227.77)"/>
            <path id="Path_350" d="M418.052 7h-1.915a1.5 1.5 0 0 0-.709.076.472.472 0 0 0-.214.372c-.007.14.092.31.29.651l.956 1.645c.2.338.294.506.419.57a.472.472 0 0 0 .427 0c.124-.063.223-.232.419-.569l.959-1.645c.2-.341.3-.512.291-.652a.472.472 0 0 0-.214-.373 1.5 1.5 0 0 0-.709-.075z" class="cls-1" transform="translate(-400.559)"/>
        </g>
        <path id="Rectangle_777" fill="none" d="M0 0H24V24H0z" transform="translate(-7239 -174)"/>
    </g>
</svg>
