<svg xmlns="http://www.w3.org/2000/svg" width="24" height="24" viewBox="0 0 24 24">
    <g>
        <g>
            <path fill="#fbcc5c" d="M7.895 213.684a5.789 5.789 0 1 0-5.789-5.789 5.789 5.789 0 0 0 5.789 5.789zm0 2.105a7.895 7.895 0 1 1 7.895-7.895 7.895 7.895 0 0 1-7.895 7.895z" transform="translate(7313 224) translate(-7311 -222) translate(0 -195.789)"/>
            <path fill="#35d07f" d="M207.895 13.684a5.789 5.789 0 1 0-5.789-5.789 5.789 5.789 0 0 0 5.789 5.789zm0 2.105a7.895 7.895 0 1 1 7.895-7.895 7.895 7.895 0 0 1-7.895 7.895z" transform="translate(7313 224) translate(-7311 -222) translate(-195.789)"/>
            <path fill="#5ea33b" d="M208.156 211.579a5.776 5.776 0 0 0 1.144-2.279 5.776 5.776 0 0 0 2.275-1.148 7.866 7.866 0 0 1-.614 2.809 7.865 7.865 0 0 1-2.805.618zm-5.881-9.3a5.776 5.776 0 0 0-2.275 1.144 7.866 7.866 0 0 1 .614-2.809 7.866 7.866 0 0 1 2.809-.614 5.776 5.776 0 0 0-1.148 2.275z" transform="translate(7313 224) translate(-7311 -222) translate(-195.79 -195.789)"/>
        </g>
        <path fill="none" d="M0 0H24V24H0z" transform="translate(7313 224) translate(-7313 -224)"/>
    </g>
</svg>
