<svg width="186" height="98" viewBox="0 0 186 98" fill="none" xmlns="http://www.w3.org/2000/svg">
<g filter="url(#filter0_d)">
<rect x="16" y="11" width="65" height="65" rx="19.6331" fill="white"/>
</g>
<path fill-rule="evenodd" clip-rule="evenodd" d="M67.1522 44.8632V32.812C67.1522 30.7827 67.1522 25.5054 67.1522 25.5054C67.1522 25.5054 61.8394 25.5054 59.7571 25.5054C55.6729 25.5054 52.362 28.6719 52.362 32.812V44.8632C52.362 47.7456 52.6339 49.7976 50.1668 52.1699C47.6996 54.5422 44.9477 54.3524 44.9477 54.3524C45.2981 57.7296 45.9914 59.2868 48.4584 60.7101C49.3312 61.2137 51.6423 62.0561 54.7212 61.5641C60.3443 60.6656 67.6428 56.4522 67.1522 44.8632Z" fill="url(#paint0_linear)"/>
<path d="M44.9472 33.2322C44.9472 28.9127 41.4456 25.4111 37.1261 25.4111H30.3339V39.8346C30.3339 47.9053 36.8765 54.4479 44.9472 54.4479V54.4479V33.2322Z" fill="url(#paint1_linear)"/>
<path d="M98.56 36.5372C98.76 36.4772 99.07 36.4172 99.49 36.3572C99.93 36.2972 100.38 36.2672 100.84 36.2672C101.28 36.2672 101.67 36.2972 102.01 36.3572C102.37 36.4172 102.67 36.5372 102.91 36.7172C103.15 36.8972 103.33 37.1472 103.45 37.4672C103.59 37.7672 103.66 38.1672 103.66 38.6672V45.1172C103.66 45.9372 103.86 46.5272 104.26 46.8872C104.66 47.2272 105.24 47.3972 106 47.3972C106.46 47.3972 106.83 47.3572 107.11 47.2772C107.41 47.1972 107.64 47.1172 107.8 47.0372V36.5372C108 36.4772 108.31 36.4172 108.73 36.3572C109.17 36.2972 109.62 36.2672 110.08 36.2672C110.52 36.2672 110.91 36.2972 111.25 36.3572C111.61 36.4172 111.91 36.5372 112.15 36.7172C112.39 36.8972 112.57 37.1472 112.69 37.4672C112.83 37.7672 112.9 38.1672 112.9 38.6672V47.7872C112.9 48.7872 112.48 49.5372 111.64 50.0372C110.94 50.4772 110.1 50.8072 109.12 51.0272C108.16 51.2672 107.11 51.3872 105.97 51.3872C104.89 51.3872 103.89 51.2672 102.97 51.0272C102.07 50.7872 101.29 50.4172 100.63 49.9172C99.97 49.4172 99.46 48.7772 99.1 47.9972C98.74 47.1972 98.56 46.2372 98.56 45.1172V36.5372ZM125.261 41.6672C125.261 41.0472 125.081 40.5972 124.721 40.3172C124.381 40.0172 123.911 39.8672 123.311 39.8672C122.911 39.8672 122.511 39.9172 122.111 40.0172C121.731 40.1172 121.401 40.2672 121.121 40.4672V50.8772C120.921 50.9372 120.601 50.9972 120.161 51.0572C119.741 51.1172 119.301 51.1472 118.841 51.1472C118.401 51.1472 118.001 51.1172 117.641 51.0572C117.301 50.9972 117.011 50.8772 116.771 50.6972C116.531 50.5172 116.341 50.2772 116.201 49.9772C116.081 49.6572 116.021 49.2472 116.021 48.7472V39.7472C116.021 39.2072 116.131 38.7672 116.351 38.4272C116.591 38.0872 116.911 37.7772 117.311 37.4972C117.991 37.0172 118.841 36.6272 119.861 36.3272C120.901 36.0272 122.051 35.8772 123.311 35.8772C125.571 35.8772 127.311 36.3772 128.531 37.3772C129.751 38.3572 130.361 39.7272 130.361 41.4872V50.8772C130.161 50.9372 129.841 50.9972 129.401 51.0572C128.981 51.1172 128.541 51.1472 128.081 51.1472C127.641 51.1472 127.241 51.1172 126.881 51.0572C126.541 50.9972 126.251 50.8772 126.011 50.6972C125.771 50.5172 125.581 50.2772 125.441 49.9772C125.321 49.6572 125.261 49.2472 125.261 48.7472V41.6672ZM133.391 32.2772C133.391 31.5172 133.641 30.8772 134.141 30.3572C134.661 29.8372 135.341 29.5772 136.181 29.5772C137.021 29.5772 137.691 29.8372 138.191 30.3572C138.711 30.8772 138.971 31.5172 138.971 32.2772C138.971 33.0372 138.711 33.6772 138.191 34.1972C137.691 34.7172 137.021 34.9772 136.181 34.9772C135.341 34.9772 134.661 34.7172 134.141 34.1972C133.641 33.6772 133.391 33.0372 133.391 32.2772ZM138.731 50.8772C138.511 50.9172 138.181 50.9672 137.741 51.0272C137.321 51.1072 136.891 51.1472 136.451 51.1472C136.011 51.1472 135.611 51.1172 135.251 51.0572C134.911 50.9972 134.621 50.8772 134.381 50.6972C134.141 50.5172 133.951 50.2772 133.811 49.9772C133.691 49.6572 133.631 49.2472 133.631 48.7472V36.5372C133.851 36.4972 134.171 36.4472 134.591 36.3872C135.031 36.3072 135.471 36.2672 135.911 36.2672C136.351 36.2672 136.741 36.2972 137.081 36.3572C137.441 36.4172 137.741 36.5372 137.981 36.7172C138.221 36.8972 138.401 37.1472 138.521 37.4672C138.661 37.7672 138.731 38.1672 138.731 38.6672V50.8772ZM142.038 36.3272C142.038 35.3072 142.208 34.4372 142.548 33.7172C142.908 32.9772 143.388 32.3772 143.988 31.9172C144.588 31.4372 145.288 31.0872 146.088 30.8672C146.908 30.6472 147.778 30.5372 148.698 30.5372C150.178 30.5372 151.268 30.7372 151.968 31.1372C152.668 31.5172 153.018 32.1772 153.018 33.1172C153.018 33.5172 152.928 33.8772 152.748 34.1972C152.588 34.5172 152.408 34.7572 152.208 34.9172C151.828 34.8172 151.428 34.7372 151.008 34.6772C150.608 34.5972 150.138 34.5572 149.598 34.5572C148.738 34.5572 148.068 34.7072 147.588 35.0072C147.108 35.2872 146.868 35.7872 146.868 36.5072V37.4672H151.788C151.908 37.6872 152.018 37.9672 152.118 38.3072C152.238 38.6272 152.298 38.9872 152.298 39.3872C152.298 40.0872 152.138 40.5972 151.818 40.9172C151.518 41.2172 151.108 41.3672 150.588 41.3672H147.138V50.8772C146.938 50.9372 146.618 50.9972 146.178 51.0572C145.758 51.1172 145.318 51.1472 144.858 51.1472C144.418 51.1472 144.018 51.1172 143.658 51.0572C143.318 50.9972 143.028 50.8772 142.788 50.6972C142.548 50.5172 142.358 50.2772 142.218 49.9772C142.098 49.6572 142.038 49.2472 142.038 48.7472V36.3272ZM159.822 45.8972C159.822 46.4172 159.982 46.7872 160.302 47.0072C160.642 47.2272 161.112 47.3372 161.712 47.3372C162.012 47.3372 162.322 47.3172 162.642 47.2772C162.962 47.2172 163.242 47.1472 163.482 47.0672C163.662 47.2872 163.812 47.5372 163.932 47.8172C164.072 48.0772 164.142 48.3972 164.142 48.7772C164.142 49.5372 163.852 50.1572 163.272 50.6372C162.712 51.1172 161.712 51.3572 160.272 51.3572C158.512 51.3572 157.152 50.9572 156.192 50.1572C155.252 49.3572 154.782 48.0572 154.782 46.2572V33.4172C155.002 33.3572 155.312 33.2972 155.712 33.2372C156.132 33.1572 156.572 33.1172 157.032 33.1172C157.912 33.1172 158.592 33.2772 159.072 33.5972C159.572 33.8972 159.822 34.5472 159.822 35.5472V37.4672H163.752C163.872 37.6872 163.982 37.9672 164.082 38.3072C164.202 38.6272 164.262 38.9872 164.262 39.3872C164.262 40.0872 164.102 40.5972 163.782 40.9172C163.482 41.2172 163.072 41.3672 162.552 41.3672H159.822V45.8972ZM169.014 47.1872C168.794 46.6872 168.554 46.1272 168.294 45.5072C168.054 44.8872 167.794 44.1772 167.514 43.3772C167.254 42.5772 166.974 41.6672 166.674 40.6472C166.394 39.6072 166.094 38.4172 165.774 37.0772C166.054 36.7972 166.424 36.5572 166.884 36.3572C167.364 36.1372 167.884 36.0272 168.444 36.0272C169.144 36.0272 169.724 36.1772 170.184 36.4772C170.644 36.7572 170.984 37.2972 171.204 38.0972L173.574 46.3472H173.694C173.934 45.6672 174.164 44.9272 174.384 44.1272C174.624 43.3272 174.854 42.5072 175.074 41.6672C175.294 40.8072 175.494 39.9572 175.674 39.1172C175.874 38.2572 176.044 37.4172 176.184 36.5972C176.904 36.2172 177.694 36.0272 178.554 36.0272C179.254 36.0272 179.834 36.1772 180.294 36.4772C180.754 36.7772 180.984 37.2972 180.984 38.0372C180.984 38.5772 180.914 39.2072 180.774 39.9272C180.634 40.6272 180.444 41.3772 180.204 42.1772C179.984 42.9772 179.714 43.8072 179.394 44.6672C179.094 45.5072 178.774 46.3372 178.434 47.1572C178.094 47.9772 177.744 48.7572 177.384 49.4972C177.024 50.2172 176.674 50.8672 176.334 51.4472C175.774 52.4272 175.254 53.2272 174.774 53.8472C174.294 54.4672 173.834 54.9472 173.394 55.2872C172.954 55.6472 172.514 55.8872 172.074 56.0072C171.634 56.1472 171.174 56.2172 170.694 56.2172C169.854 56.2172 169.174 55.9672 168.654 55.4672C168.134 54.9672 167.824 54.3172 167.724 53.5172C168.364 53.0172 169.004 52.4572 169.644 51.8372C170.284 51.2372 170.864 50.6172 171.384 49.9772C171.044 49.8772 170.674 49.6472 170.274 49.2872C169.894 48.9072 169.474 48.2072 169.014 47.1872Z" fill="#281E57"/>
<defs>
<filter id="filter0_d" x="0.0130157" y="0.34201" width="96.974" height="96.974" filterUnits="userSpaceOnUse" color-interpolation-filters="sRGB">
<feFlood flood-opacity="0" result="BackgroundImageFix"/>
<feColorMatrix in="SourceAlpha" type="matrix" values="0 0 0 0 0 0 0 0 0 0 0 0 0 0 0 0 0 0 127 0"/>
<feOffset dy="5.32899"/>
<feGaussianBlur stdDeviation="7.99349"/>
<feColorMatrix type="matrix" values="0 0 0 0 0 0 0 0 0 0 0 0 0 0 0 0 0 0 0.09 0"/>
<feBlend mode="normal" in2="BackgroundImageFix" result="effect1_dropShadow"/>
<feBlend mode="normal" in="SourceGraphic" in2="effect1_dropShadow" result="shape"/>
</filter>
<linearGradient id="paint0_linear" x1="65.9693" y1="27.7747" x2="58.5549" y2="68.8908" gradientUnits="userSpaceOnUse">
<stop stop-color="#64E1F5"/>
<stop offset="0.618376" stop-color="#6067F2"/>
<stop offset="1" stop-color="#3D13AE"/>
</linearGradient>
<linearGradient id="paint1_linear" x1="53.1448" y1="52.3064" x2="52.4614" y2="21.5642" gradientUnits="userSpaceOnUse">
<stop stop-color="#5750DF"/>
<stop offset="0.224591" stop-color="#963DDB"/>
<stop offset="0.476864" stop-color="#D340C4"/>
<stop offset="0.744287" stop-color="#E47C87"/>
<stop offset="0.983431" stop-color="#F4B74B"/>
</linearGradient>
</defs>
</svg>
