<svg xmlns="http://www.w3.org/2000/svg" width="22.627" height="22.627" viewBox="0 0 22.627 22.627">
    <g>
        <g>
            <path fill="none" d="M0 0H16V16H0z" transform="rotate(-45 13.657 5.657)"/>
        </g>
        <g>
            <g>
                <path fill="#202060" d="M12 7h-2a.667.667 0 1 0 0 1.333h2a2 2 0 0 1 0 4h-2a.667.667 0 0 0 0 1.333h2A3.333 3.333 0 0 0 12 7zm-6 3.333a.669.669 0 0 0 .667.667h4a.667.667 0 1 0 0-1.333h-4a.669.669 0 0 0-.667.666zm1.333 2h-2a2 2 0 1 1 0-4h2a.667.667 0 1 0 0-1.333h-2a3.333 3.333 0 1 0 0 6.667h2a.667.667 0 0 0 0-1.333z" transform="rotate(-45 13.657 5.657) translate(1.333 4.667) translate(-2 -7)"/>
            </g>
        </g>
    </g>
</svg>
