<svg id="Layer_1" data-name="Layer 1" xmlns="http://www.w3.org/2000/svg" xmlns:xlink="http://www.w3.org/1999/xlink" viewBox="0 0 650 650"><defs><style>.cls-1{fill:#fff;}.cls-2{fill-rule:evenodd;fill:url(#linear-gradient);}.cls-3{fill:url(#linear-gradient-2);}</style><linearGradient id="linear-gradient" x1="444.57" y1="-253.81" x2="370.42" y2="-664.97" gradientTransform="matrix(1, 0, 0, -1, 0, -96)" gradientUnits="userSpaceOnUse"><stop offset="0" stop-color="#64e1f5"/><stop offset="0.62" stop-color="#6067f2"/><stop offset="1" stop-color="#3d13ae"/></linearGradient><linearGradient id="linear-gradient-2" x1="219.98" y1="-512.43" x2="213.14" y2="-205.01" gradientTransform="matrix(1, 0, 0, -1, 0, -96)" gradientUnits="userSpaceOnUse"><stop offset="0" stop-color="#5750df"/><stop offset="0.22" stop-color="#963ddb"/><stop offset="0.48" stop-color="#d340c4"/><stop offset="0.74" stop-color="#e47c87"/><stop offset="0.98" stop-color="#f4b74b"/></linearGradient></defs><rect class="cls-1" width="650" height="650" rx="196.33"/><path class="cls-2" d="M511.52,338.63V145.05H437.57c-40.84,0-73.95,31.67-73.95,73.07V338.63c0,28.83,2.72,49.35-21.95,73.07s-52.19,21.82-52.19,21.82c3.5,33.78,10.43,49.35,35.1,63.58,8.73,5,31.84,13.46,62.63,8.54C443.44,496.66,516.43,454.52,511.52,338.63Z"/><path class="cls-3" d="M289.47,222.32a78.21,78.21,0,0,0-78.21-78.21H143.34V288.35A146.13,146.13,0,0,0,289.47,434.48h0Z"/></svg>