<?xml version="1.0" encoding="utf-8"?>
<!-- Generator: Adobe Illustrator 25.2.3, SVG Export Plug-In . SVG Version: 6.00 Build 0)  -->
<svg version="1.1" xmlns="http://www.w3.org/2000/svg" xmlns:xlink="http://www.w3.org/1999/xlink" x="0px" y="0px"
	 viewBox="0 0 956 956" style="enable-background:new 0 0 956 956;" xml:space="preserve">
<style type="text/css">
	.st0{fill:none;}
	.st1{fill:url(#SVGID_1_);}
	.st2{fill:#8A327E;}
	.st3{fill:#9C3A8D;}
	.st4{fill:#802E74;}
	.st5{fill:#AE449E;}
	.st6{fill:url(#SVGID_2_);}
	.st7{fill:url(#SVGID_3_);}
	.st8{fill:url(#SVGID_4_);}
	.st9{fill:url(#SVGID_5_);}
	.st10{fill:url(#SVGID_6_);}
	.st11{fill:#AD5774;}
	.st12{fill:#FFC9DB;}
	.st13{fill:#FFCADC;}
	.st14{fill:#AD4C6D;}
	.st15{fill:#FFA2C1;}
	.st16{fill:#AF7689;}
	.st17{fill:#FFCCD9;}
	.st18{opacity:0.46;fill:url(#SVGID_7_);}
	.st19{opacity:0.46;fill:url(#SVGID_8_);}
	.st20{fill:url(#SVGID_9_);}
	.st21{fill:#F8B25A;}
	.st22{fill:#FCC57E;}
	.st23{fill:#FFE7C7;}
	.st24{fill:#FFFFFF;}
	.st25{opacity:0.2;}
	.st26{fill:#FFFF00;}
</style>
<g id="back_1_">
	<path d="M458,749.9c-0.4,0-0.8-0.2-1.1-0.5c-1.4-1.4-2.8-2.8-4.4-4.4c-0.3-0.3-0.6-0.6-0.9-0.9l-0.6-0.5c-1-1-2-1.9-3-2.9
		c-0.4-0.4-0.8-0.7-1.2-1.1l-0.6-0.6c-0.9-0.9-1.9-1.7-2.8-2.6c-0.5-0.5-1.1-0.9-1.6-1.4l-0.4-0.3c-0.9-0.8-1.9-1.6-2.8-2.4
		c-0.7-0.6-1.4-1.2-2.1-1.8c-0.9-0.8-1.9-1.6-2.8-2.4c-0.7-0.6-1.4-1.2-2.2-1.8c-1-0.8-1.9-1.5-2.9-2.3c-0.7-0.6-1.5-1.1-2.2-1.7
		c-1-0.8-2-1.6-3.1-2.3l-0.5-0.4c-0.6-0.4-1.1-0.9-1.7-1.3c-1.1-0.8-2.2-1.6-3.3-2.4c-9.1-6.6-18.9-13-29.1-19.1
		c-0.6-0.3-1.1-0.7-1.7-1c-1.2-0.7-2.5-1.4-3.7-2.1l-1.7-1c-1.5-0.9-3.1-1.8-4.7-2.6l-0.7-0.4c-1.8-1-3.6-2-5.4-2.9l-1.6-0.8
		c-1.3-0.7-2.7-1.4-4-2.1c-0.6-0.3-1.2-0.6-1.9-1c-1.4-0.7-2.7-1.4-4.1-2.1l-1.6-0.8c-1.9-0.9-3.8-1.9-5.7-2.8l-0.9-0.4
		c-1.6-0.8-3.3-1.5-4.9-2.3l-1.9-0.9c-1.4-0.6-2.7-1.3-4.1-1.9l-1.9-0.9c-1.6-0.7-3.2-1.4-4.8-2.1l-1.1-0.5c-2-0.9-4-1.7-6-2.6
		l-1.6-0.7c-1.5-0.6-3-1.2-4.5-1.9l-2.1-0.8c-1.5-0.6-3-1.2-4.4-1.8l-1.9-0.7c-13.4-5.2-27.6-10.1-42-14.7c-5-0.8-5.3-7-5.5-13
		c-0.3-8.3-1-13.7-6.9-13.7c-0.7,0-1.5,0.1-2.4,0.2c-6.3,1.6-13.6,3.3-20.5,3.3c-5.2,0-9.5-1-13-2.9c-0.6-0.3-1.1-0.7-1.7-1
		c-0.1-0.1-0.5-0.3-0.5-0.3c-0.4-0.3-0.8-0.5-1.1-0.8c-0.2-0.1-0.4-0.3-0.6-0.4c-0.4-0.3-0.7-0.6-1.1-0.9c0,0-0.4-0.3-0.5-0.4
		c-0.5-0.4-1-0.8-1.4-1.3c0,0-0.1-0.1-0.1-0.1c-0.4-0.4-0.9-0.9-1.3-1.4c-0.1-0.1-0.4-0.5-0.4-0.5c-0.3-0.3-0.6-0.7-0.9-1
		c-0.1-0.2-0.3-0.4-0.4-0.5c-0.3-0.4-0.6-0.7-0.8-1.1l-0.4-0.5c-0.4-0.5-0.7-1-1.1-1.6l-0.1-0.1c-0.4-0.6-0.7-1.1-1-1.7l-0.3-0.5
		c-0.2-0.4-0.4-0.8-0.7-1.2c-0.1-0.2-0.2-0.4-0.3-0.6c-0.2-0.4-0.4-0.8-0.6-1.3c0,0-0.2-0.4-0.3-0.6c-0.2-0.6-0.5-1.1-0.7-1.7
		l-0.1-0.1c-0.2-0.6-0.4-1.3-0.6-1.9l-0.2-0.6c-0.1-0.5-0.3-0.9-0.4-1.4c-0.1-0.2-0.1-0.5-0.2-0.7c-0.1-0.5-0.2-0.9-0.3-1.4
		c0,0-0.1-0.5-0.1-0.7c-0.1-0.6-0.2-1.2-0.3-1.8l0-0.2c-0.1-0.7-0.2-1.4-0.2-2.1c0-0.1,0-0.6,0-0.6c0-0.5-0.1-1-0.1-1.5
		c0-0.3,0-0.5,0-0.7c0-0.5,0-1,0-1.5l0-0.7c0-0.6,0.1-1.3,0.1-1.9l0-0.3c0.1-0.7,0.2-1.4,0.3-2.2l0.1-0.6c0.1-0.5,0.2-1,0.3-1.6
		c0-0.3,0.1-0.5,0.2-0.8c0.1-0.5,0.2-1,0.3-1.5c0,0,0.1-0.5,0.2-0.7c0.2-0.6,0.3-1.3,0.5-1.9l0.1-0.3c0.2-0.7,0.5-1.4,0.8-2.2
		l0.4-0.9c0.1-0.3,0.2-0.5,0.3-0.8c0-0.1,0.1-0.1,0.1-0.2c2.2-5.1,5.3-9.8,9.3-14.1c0.3-0.3,0.7-0.5,1.2-0.5c0.3,0,0.6,0.1,0.8,0.2
		c0.6,0.4,0.9,1.1,0.7,1.9c-0.1,0.4-2.8,9.4,4.6,15c2,1.5,4.5,2.3,7.2,2.3c7.2,0,15.4-6,16.2-19.2c0.5-7.7-4.6-11.8-13.1-17.4
		c-0.2,0-11.1-7.6-11.1-8c-4.8-4.1-9.9-9.6-13-17.5c-0.1-0.3-0.2-0.5-0.3-0.8L209,510c-2.5-6.6-3.5-14.3-2.9-23.4c0,0,0-0.1,0-0.1
		c0.1-0.8,0.1-1.6,0.2-2.4c1.7-18.2,16-33.4,22.1-39.1c0.3-0.3,0.7-0.4,1.1-0.4c0.2,0,0.4,0,0.7,0.1c0.6,0.3,1,0.9,0.9,1.5
		c0,0.1-0.4,14,6.4,21c2.5,2.6,5.8,3.9,9.7,3.9c4.7,0,10.5-1.9,17.1-5.6c7.7-4.3,12.5-12,13.5-21.7c1.1-11.1-3.1-22.9-10.5-29.4
		c-0.7-0.4-1.3-0.9-1.7-1.4c-12.5-9.1-23.2-20.6-17.4-42.7c4.1-13.6,12.9-21.8,23.7-21.8c7.5,0,14.7,4.1,18.8,10.7
		c4.3,7,4.7,15.9,1,24.7c6-0.6,10.5-3.7,12.9-8.7l0.1-0.1c0.1-0.1,0.1-0.2,0.2-0.3c0.1-0.1,0.1-0.2,0.1-0.4c0,0,0.2-0.5,0.3-0.7
		c0-0.1,0.1-0.3,0.1-0.4c0,0,0.2-0.6,0.2-0.7c0-0.1,0.1-0.3,0.1-0.4l0.1-0.3c0-0.1,0.1-0.2,0.1-0.4c0-0.1,0.1-0.6,0.1-0.6
		s0.1-0.4,0.1-0.5c0-0.1,0-0.3,0.1-0.4c0,0,0.1-0.6,0.1-0.8c0-0.2,0-0.3,0-0.5c0,0,0.1-0.6,0.1-0.8c0-0.2,0-0.3,0-0.5
		c0,0,0-0.7,0-0.8c0-0.2,0-0.7,0-0.7s0-0.5,0-0.6c0-0.2,0-0.3,0-0.5c0,0,0-0.7,0-0.8c0-0.2,0-0.4-0.1-0.5c0,0-0.1-0.7-0.1-0.8
		c0-0.2-0.1-0.4-0.1-0.6c0,0-0.1-0.7-0.1-0.8c0-0.2-0.1-0.4-0.1-0.6l-0.2-0.8c0-0.2-0.1-0.5-0.2-0.7l-0.2-0.8
		c-0.1-0.3-0.1-0.5-0.2-0.8l-0.2-0.7c-0.1-0.5-0.3-1-0.5-1.5c-1.9-5.4-5-9.7-8.2-14.3c-7.5-10.6-15.3-21.5-7.6-45.7
		c0.2-0.6,0.4-1.1,0.6-1.7l0.2-0.5c0.1-0.4,0.3-0.7,0.4-1.1l0.3-0.6c0.1-0.3,0.3-0.6,0.4-1l0.3-0.7c0.1-0.3,0.3-0.6,0.4-0.9
		c0.1-0.2,0.3-0.7,0.3-0.7c0.2-0.3,0.3-0.6,0.5-0.9c0.1-0.2,0.2-0.4,0.4-0.7c0.2-0.3,0.3-0.6,0.5-0.8c0.1-0.2,0.3-0.4,0.4-0.7
		c0.2-0.3,0.3-0.5,0.5-0.8c0.1-0.2,0.3-0.4,0.4-0.6c0.2-0.3,0.4-0.5,0.6-0.8l0.4-0.6c0.2-0.3,0.4-0.5,0.6-0.8l0.4-0.6
		c0.2-0.3,0.4-0.6,0.6-0.8l0.4-0.5c0.2-0.3,0.5-0.6,0.7-0.9l0.4-0.4c0.4-0.4,0.8-0.9,1.1-1.3c0.4-0.4,0.8-0.9,1.2-1.3l0.4-0.4
		c0.3-0.3,0.5-0.6,0.8-0.8l0.5-0.5c0.3-0.2,0.5-0.5,0.8-0.7c0,0,1-1,1.3-1.2l0.5-0.5c0.3-0.2,0.5-0.5,0.8-0.7l0.6-0.5
		c0.3-0.2,0.5-0.4,0.8-0.6l0.6-0.5l0.8-0.6l0.6-0.5c0.3-0.2,0.5-0.4,0.8-0.6l0.6-0.5l1.4-1c0.3-0.2,1.5-1,1.5-1
		c0.3-0.2,0.7-0.4,1-0.7l0.5-0.3c1-0.6,2-1.3,3-1.9c0,0,1.2-0.7,1.5-0.9l0.6-0.3c0.3-0.2,0.6-0.4,0.9-0.5l0.3-0.2
		c2.4-1.4,5.1-2.7,7.8-4c0,0,0,0,0.1,0c13.8-6.4,28-9.8,34.9-9.9c0,0,0,0,0,0c0.7,0,1.2,0.4,1.5,1c0.2,0.6,0.1,1.3-0.4,1.8
		c-4.8,4.3-4.6,10.9-2.8,15.6c2,5.2,7.2,11.3,15.1,11.3c3,0,6-0.9,9.1-2.6c-6.7-10-7.8-24.6-2.5-35.4c4.7-9.6,13.6-15,25-15
		c3.8,0,7.9,0.6,12.1,1.8c0.7,0.2,1.1,0.8,1.2,1.5c0,0.7-0.4,1.3-1,1.6c-6.5,2.6-9.7,7.1-8.8,12.1c1.1,5.5,7.7,11.3,19.9,11.3
		c0.3,0,0.5,0,0.8,0c8.7-0.2,14.6-5.1,21.5-10.9c9.6-8.1,20.5-17.3,42.5-17.3l0.2,0c30.4,0,52.2,17,59.7,23.8
		c0.1-5.9,1.5-16.8,9.4-23c5.3-4.1,12.8-6.5,20.5-6.5c12.2,0,21.6,5.9,24.6,15.4c2.3,7.3,2,13.3-1,17.8c-2.7,4.2-7.6,6.9-13.9,7.7
		c-0.9,0.1-1.8,0.2-2.8,0.2c-7.1,0-14.5-2.8-18.1-4.4c-0.1,6.1,1.2,10.5,4.1,13.7c5,5.4,14.2,6.1,23.3,6.1c2,0,4,0,6-0.1
		c2,0,3.9-0.1,5.8-0.1c4.2,0,7.2,0.2,9.8,0.6c8,1.2,10.6,5.5,13.1,9.6c0.1,0.2,0.2,0.4,0.4,0.6c7.5-4.6,13.4-7.6,16.6-9
		c0.7-0.3,3.3-1,4.5-1c1.1,0,1.6,0.6,1.8,1c0.3,0.6,0.2,1.3-0.2,1.8c-2,2.6-4.3,6-6.8,10c0,0-1,1.6-1.4,2.2c0,0-1.1,1.8-1.4,2.3
		c0,0-1.1,1.8-1.4,2.3c1,0.3,2,0.6,3.1,0.8c0.4,0.1,0.9,0.1,1.5,0.1c3.6,0,8.3-1.6,13.3-3.3c6-2,12.1-4.1,17.9-4.1
		c9,0,14.6,5.3,17.1,16.2c0.2,0.7-0.2,1.4-0.8,1.7c-0.2,0.1-0.5,0.2-0.8,0.2c-0.4,0-0.8-0.2-1.1-0.4c-3.2-3-6.9-4.6-10.7-4.6
		c-4,0-7.9,1.8-10.6,5.1c-3.6,4.3-5,10.6-3.8,17.7c1,5.9,3.5,9.2,6.9,9.2c1.8,0,3.6-1,4.6-2.5c1.1-1.6-0.4-5.4-1.3-7
		c-0.3-0.6-0.2-1.3,0.2-1.8c0.3-0.3,0.7-0.5,1.2-0.5c0.2,0,0.4,0,0.6,0.1c4.5,1.9,8.6,4.1,12,6.7c0.1,0,0.1,0.1,0.2,0.1
		c0,0,0.1,0.1,0.1,0.1c0.2,0.1,0.4,0.3,0.5,0.4l0.5,0.4c0.2,0.1,0.3,0.3,0.5,0.4c0.4,0.3,0.7,0.6,1.1,1l0.2,0.2
		c0.1,0.1,0.3,0.2,0.4,0.3c0.5,0.5,0.9,0.9,1.4,1.4l0.1,0.1c0.5,0.5,0.9,1,1.4,1.6c0.1,0.1,0.2,0.2,0.3,0.3l0.1,0.2
		c0.3,0.4,0.6,0.7,0.8,1.1c0.1,0.2,0.2,0.3,0.3,0.5l0.1,0.2c0.2,0.3,0.5,0.7,0.7,1c0.1,0.2,0.2,0.4,0.3,0.5l0.1,0.2
		c0.2,0.3,0.4,0.7,0.6,1c0.1,0.2,0.3,0.5,0.4,0.7c0.2,0.3,0.3,0.7,0.5,1c0.1,0.3,0.2,0.5,0.3,0.8c0.1,0.3,0.3,0.7,0.4,1
		c0.1,0.3,0.2,0.5,0.3,0.8c0.1,0.3,0.2,0.7,0.3,1c0.1,0.3,0.2,0.5,0.2,0.8c0.1,0.3,0.2,0.7,0.2,1l0,0.1c0,0.2,0.1,0.4,0.1,0.6
		c0.1,0.3,0.1,0.7,0.2,1.1l0,0.2c0,0.2,0.1,0.3,0.1,0.5c0,0.4,0.1,0.8,0.1,1.2c0,0,0,0.5,0.1,0.6c0,0.5,0,1,0,1.5l0,0.3
		c0,0.6,0,1.2-0.1,1.8c0,0.1,0,0.5,0,0.5c0,0.4-0.1,0.8-0.1,1.3c0,0.2,0,0.3-0.1,0.5l0,0.2c-0.1,0.4-0.1,0.7-0.2,1.1
		c0,0.2-0.1,0.7-0.1,0.7c-0.1,0.3-0.1,0.7-0.2,1c-0.1,0.2-0.1,0.5-0.2,0.7c-0.1,0.4-0.2,0.7-0.3,1c-0.1,0.3-0.2,0.5-0.2,0.8
		c-0.1,0.3-0.2,0.7-0.3,1c-0.1,0.3-0.2,0.5-0.3,0.7c-0.1,0.3-0.3,0.6-0.4,1c-0.1,0.3-0.2,0.5-0.3,0.7c-0.1,0.3-0.3,0.6-0.5,1
		c0,0-0.2,0.5-0.3,0.7c-0.2,0.3-0.3,0.6-0.5,1c0,0-0.3,0.5-0.4,0.7c-0.2,0.3-0.4,0.6-0.6,1c0,0-0.3,0.5-0.4,0.6
		c-0.3,0.4-0.5,0.8-0.8,1.2c0,0-0.2,0.3-0.3,0.4c-0.4,0.5-0.7,1-1.1,1.5l-0.3,0.4c-0.3,0.4-0.6,0.7-0.9,1.1
		c-0.1,0.1-0.2,0.2-0.3,0.4l-0.2,0.2c-0.3,0.3-0.6,0.6-0.8,0.9c-0.1,0.1-0.3,0.3-0.4,0.4l-0.1,0.1c-0.3,0.3-0.5,0.5-0.8,0.8
		c-0.2,0.2-0.4,0.3-0.6,0.5c-0.3,0.3-0.6,0.5-0.9,0.8c-0.2,0.2-0.4,0.4-0.7,0.5c-0.3,0.2-0.6,0.5-0.9,0.7c-0.2,0.2-0.5,0.3-0.7,0.5
		c-0.3,0.2-0.6,0.4-0.9,0.7c-0.2,0.2-0.5,0.3-0.7,0.5c-0.3,0.2-0.6,0.4-1,0.6c-0.3,0.2-0.5,0.3-0.7,0.5c-0.3,0.2-0.6,0.4-0.9,0.6
		l-0.3,0.2c-0.2,0.1-0.4,0.2-0.5,0.3c-0.4,0.2-0.7,0.4-1.1,0.6c0,0-0.5,0.3-0.7,0.4c-0.4,0.2-0.9,0.4-1.3,0.6c0,0-0.4,0.2-0.5,0.2
		c-0.6,0.3-1.3,0.5-1.9,0.8l-0.4,0.1c-0.5,0.2-1,0.4-1.5,0.5c-0.2,0-0.7,0.2-0.7,0.2c-0.4,0.1-0.9,0.3-1.3,0.4
		c-0.2,0.1-0.8,0.2-0.8,0.2c-0.4,0.1-0.8,0.2-1.2,0.3c-0.3,0.1-0.5,0.1-0.8,0.2l-0.1,0c-0.4,0.1-0.8,0.2-1.2,0.2
		c-0.3,0.1-0.6,0.1-0.9,0.2c-0.4,0.1-0.8,0.1-1.2,0.2c-0.3,0-0.6,0.1-1,0.1c-0.4,0-0.8,0.1-1.2,0.1c-0.3,0-0.6,0-1,0.1
		c-0.4,0-0.8,0-1.3,0c-0.3,0-0.6,0-1,0l-0.2,0c-0.4,0-0.8,0-1.1,0l-0.2,0c-0.2,0-0.5,0-0.7,0c-0.5,0-0.9-0.1-1.4-0.1l-0.3,0
		c-0.2,0-0.4,0-0.6,0c-0.5,0-1.1-0.1-1.6-0.2c0,0-0.6-0.1-0.7-0.1c-0.8-0.1-1.5-0.2-2.3-0.4l-0.3-0.1c-0.7-0.1-1.4-0.3-2.1-0.5
		c-0.2,0-0.8-0.2-0.8-0.2c-0.5-0.1-1-0.3-1.6-0.4c-0.2-0.1-0.5-0.1-0.7-0.2l-0.3-0.1c-0.5-0.2-1-0.3-1.4-0.5
		c-0.3-0.1-0.6-0.2-0.9-0.3l-0.2-0.1c-0.5-0.2-0.9-0.3-1.4-0.5c-0.3-0.1-0.7-0.3-1-0.4c-0.5-0.2-1-0.4-1.4-0.6
		c-0.4-0.2-0.7-0.3-1.1-0.5c-0.5-0.2-0.9-0.5-1.4-0.7c-0.4-0.2-0.7-0.4-1.1-0.6c-0.5-0.3-0.9-0.5-1.4-0.8c-0.4-0.2-0.7-0.4-1.1-0.6
		c-0.5-0.3-0.9-0.6-1.4-0.9l-0.2-0.1c-0.3-0.2-0.5-0.3-0.8-0.5c-0.5-0.3-1-0.7-1.5-1l-0.3-0.2c-0.2-0.2-0.4-0.3-0.7-0.5
		c-0.3-0.2-0.7-0.5-1-0.8c0.2,1.1,0.3,2.2,0.4,3.3c0,0.6,0.1,1.2,0.1,1.8l0.5,18.3c0,0.1,0.1,0.1,0.1,0.1c3.5,0.1,6.4,0.3,8.4,1.1
		c1.6,0.6,2.8,2.2,2.9,3.9l0.1,1.2L777.3,395c0.1,0,0.1,0,0.2,0c0.8,0,1.4,0.6,1.6,1.3c0.1,0.8-0.4,1.6-1.2,1.8
		c-1,0.3-101.5,25-125.2,30.8l0.2,2.2c0.2,2-0.8,4-2.4,5.1c-1.9,1.3-4,2-6.1,2.1l0,2.9c0,0.2,0,0.4-0.1,0.5c-1,2.8-4.5,6.6-7.8,10.2
		c-0.6,0.7-1.2,1.3-1.8,2c-1.1,1.6-2.2,2.9-3.3,4.1c0,0,0,0.1-0.1,0.1l-1.9,23.6l-0.7,59.6c0,1.1,0.2,2.1,0.8,3l13.3,21.7
		c1.1,1.9-0.4,3.5-1.3,4.4c-0.3,0.3-0.5,0.6-0.7,0.8c-4,5.3-7,10.5-9.6,15.1c-3,5.3-5.7,10-9.2,13.7l1.5,1.7
		c1.6,1.8,0.8,4.7-0.4,6.1c0,0,0,0,0,0c-0.1,0.1-0.2,0.2-0.3,0.3c-0.2,0.2-0.3,0.4-0.5,0.5c-1.1,0.8-2.4,1.3-3.8,1.3
		c-0.1,0-0.3,0-0.4,0c-0.1,0-0.3,0-0.4-0.1c-0.7-0.1-1.2-0.2-1.7-0.5c-0.4-0.2-0.7-0.3-1-0.5c-0.1,0-0.3-0.2-0.3-0.2
		c-1.5-1-3.2-1.5-4.8-1.5l-0.2,0c-1.1,0-2.3,0.1-3.6,0.1c-4.7,0-11.9-0.3-19.2-1.6c-0.5-0.1-1-0.2-1.5-0.3c-0.6-0.1-1.2-0.3-1.8-0.4
		c-0.3-0.1-0.7-0.2-1-0.2c-4.3-1.1-8.1-2.4-11.4-4.1c-0.5-0.2-0.9-0.5-1.4-0.7c-0.9-0.5-1.6-0.9-2.2-1.3c-1.4-0.9-2.7-1.9-3.9-3
		c-0.4-0.4-0.8-0.8-1.1-1.2l-0.3-0.4c-0.2-0.3-0.4-0.5-0.7-0.8c-0.1-0.1-0.2-0.3-0.3-0.4c-0.2-0.3-0.4-0.6-0.6-0.8
		c-0.1-0.2-0.2-0.3-0.3-0.5c-0.2-0.3-0.3-0.5-0.5-0.8c0,0-0.2-0.3-0.3-0.4c-0.2-0.3-0.3-0.6-0.5-0.9c0,0-0.1-0.2-0.2-0.3
		c-0.2-0.4-0.4-0.9-0.5-1.3l-0.1-0.2c-0.1-0.4-0.3-0.8-0.4-1.1c0-0.1-0.1-0.5-0.1-0.5c-0.1-0.3-0.1-0.6-0.2-0.9
		c0-0.2-0.1-0.4-0.1-0.6c-0.1-0.3-0.1-0.6-0.2-1l-0.1-0.6c0-0.3-0.1-0.7-0.1-1.1l-0.1-0.5c0-0.5-0.1-1-0.1-1.6c0-0.7,0-1.2-0.1-1.8
		l0-0.6c0-0.4,0-0.8,0-1.3l0-0.7c0-0.4,0-0.8,0-1.3l0-0.8c0-0.4,0.1-2.1,0.1-2.1c0-0.5,0.1-2.1,0.1-2.2c0.1-1.8,0.2-3.7,0.3-5.8
		l0.2-3.7l0.2-2.7l0.2-2.9c0-0.8,0.1-3,0.1-3c0-0.9,0.1-3,0.1-3c0-0.9,0.1-3.2,0.1-3.2c0-1,0.1-2,0.1-3.1l0-0.5c0-1,0-2.1,0.1-3.2
		l0-0.6c0-1.1,0-2.2,0-3.4c0,0,0-2.4,0-3.3c-2.3-1.7-4.7-3.3-7-5c-21.7-15.4-40.6-28.7-43-57.9c-7.3,7.3-13.2,17.3-16,27.2
		c-0.9,19.8,1.5,36.5,4.3,51.7c2.9,12.3,7.3,23.7,13.3,34.9c0.9,1.7,1.9,3.4,2.9,5.2l0.3,0.5c0.9,1.6,1.9,3.2,2.9,4.8l0.3,0.4
		c1.1,1.7,2.2,3.3,3.2,4.9c1.1,1.6,2.2,3.2,3.4,4.8l0.3,0.4c1.1,1.5,2.2,2.9,3.3,4.4l0.3,0.4c1.1,1.5,2.3,2.9,3.4,4.4l0.1,0.1
		c1.3,1.6,2.5,3.1,3.7,4.5l0.3,0.3c1.1,1.4,2.3,2.8,3.5,4.2l0.4,0.4c1.2,1.4,2.3,2.8,3.5,4.1l3.9,4.7c1.2,1.4,2.4,2.8,3.6,4.2
		l0.4,0.4c1.1,1.4,2.3,2.7,3.4,4.1l0.3,0.3c1.2,1.5,2.4,2.9,3.6,4.4c0,0,0.1,0.1,0.1,0.1c1.1,1.4,2.3,2.9,3.4,4.4l0.3,0.4
		c1.1,1.4,2.1,2.8,3.2,4.3l0.3,0.4c1.2,1.7,2.3,3.2,3.3,4.7c0.3,0.5,0.4,1.1,0.1,1.6s-0.7,0.9-1.3,0.9c-1.4,0.1-2.8,0.3-4.3,0.5
		c-0.3,0-0.6,0.1-0.8,0.1l-0.5,0.1c-1,0.1-1.9,0.3-2.9,0.4c-0.4,0.1-0.9,0.2-1.3,0.2l-0.3,0.1c-0.9,0.2-1.7,0.3-2.6,0.5
		c-0.6,0.1-1.1,0.2-1.7,0.4c-40.9,9.2-76.5,40.9-90.6,80.6l-0.2,0.5c-0.1,0.3-0.2,0.5-0.3,0.8c-0.5,1.5-0.9,2.8-1.3,4.2
		c-0.2,0.5-0.6,1-1.1,1.1C458.3,749.9,458.1,749.9,458,749.9z"/>
	<rect class="st0" width="956" height="956"/>
</g>
<g id="hair-color">
	<linearGradient id="SVGID_1_" gradientUnits="userSpaceOnUse" x1="668.5049" y1="213.0162" x2="162.7271" y2="554.3495">
		<stop  offset="0.5181" style="stop-color:#FF63E8"/>
		<stop  offset="0.5831" style="stop-color:#F75FE0"/>
		<stop  offset="0.6867" style="stop-color:#DF54CB"/>
		<stop  offset="0.8151" style="stop-color:#BA41A8"/>
		<stop  offset="0.8839" style="stop-color:#A33693"/>
	</linearGradient>
	<path class="st1" d="M270.2,643.9c-9.3-1.3,2.6-29.8-15.6-26.4c-10.9,2.9-23.8,5.4-32.3,0.6c-19-10.8-25.7-40.9-5.3-62.9
		c0,0-3.3,10.4,5.1,16.7c8.5,6.5,24.8,1.3,26-18c1.4-23.3-45-17.7-40.3-69.7c1.6-17.4,15.3-32.1,21.6-38c0,0-1.4,41.5,35.5,20.7
		c21-11.8,17-43.8,1.6-55c-13.8-10-22.1-21.3-16.9-41.1c11.5-38.4,55.4-17,39.4,15c16,0.1,22.7-14.1,16.9-30.7
		c-6.4-18.4-26.4-25.2-15.8-58.9c10.3-32.8,60.3-47.6,73.9-47.8c-12.7,11.3,3.3,39.9,24.9,26c-14.4-18.8-5.8-57.9,31.9-47.6
		c-17.7,7.1-10.7,27,12.6,26.6c21.7-0.4,26.4-28.1,64-28.2c37.7-0.1,61.7,26.1,61.7,26.1s-1.7-17.5,8.7-25.6
		c12.3-9.6,37.4-8.8,42.7,8.1c4.9,15.6-3.6,22.2-13.6,23.4s-22.2-5.1-22.2-5.1c-2.6,32.1,31.5,21.4,50.3,24.3
		c15.4,2.3,8.3,16.3,28.3,20.6c13,2.2,41.8-22.1,48.6,7.7c-12.4-11.9-31.4-1.8-27.8,19.6c2.2,13.2,11.3,12,14.4,7.3
		c2-2.9-1.2-8.7-1.2-8.7c56.9,23.3,0.7,95.4-51.9,50.2h0c-153,0-290.9,92.1-349.6,233.3L270.2,643.9z"/>
</g>
<g id="hair">
	<path class="st2" d="M276.2,361.4c6.9,0.4,8.8,14.5-2.7,21.3C259.9,374.1,269.4,361,276.2,361.4z"/>
	<path class="st3" d="M329.7,258.2c-16.8,7.7-34,20.2-39.6,38c-10.6,33.7,9.4,40.5,15.8,58.9c2.9,8.2,2.7,15.8-0.2,21.4
		c16.1-10.3,8-28.4,0.9-47.5C297.8,305.2,289.1,276.4,329.7,258.2z"/>
	<path class="st4" d="M249.7,370.8c-5.2,19.8,3.1,31.1,16.9,41.1c5.2,6.1,27.4,2,28.7-12.7C284.1,409.3,241,412,249.7,370.8z"/>
	<path class="st5" d="M610.4,233.9c4.9,15.6-3.6,22.2-13.6,23.4s-22.2-5.1-22.2-5.1s0.3-8.2,4.8-12.3
		C571.9,253.2,617.2,265,610.4,233.9z"/>
	<path class="st5" d="M589.5,234.3c11.7-0.2,13.8,13.7,4.2,13.7C599.3,244.2,596.7,239.5,589.5,234.3z"/>
	<linearGradient id="SVGID_2_" gradientUnits="userSpaceOnUse" x1="623.1979" y1="242.2384" x2="239.1979" y2="668.905">
		<stop  offset="0.5789" style="stop-color:#AE449E"/>
		<stop  offset="0.9235" style="stop-color:#6F2564"/>
	</linearGradient>
	<path class="st6" d="M207.9,484.2c-2,22.1,4.4,35.2,20.6,46.8c9.7,6.4,18.2,3.1,26.5,13.7c2.8,3.6,4.7,7.7,5.7,12.2
		c1,4.4,2.5,10.7,2.5,17.4c0,6.6-0.8,13.3-5,19.3c-13.8,19.7-60,12.2-50.1-24.6c-8.2,19.3-0.9,40.4,14.4,49
		c8.6,4.9,21.4,2.3,32.3-0.6c18.1-3.3,6.3,25.1,15.6,26.4l15.5-37.3c58.7-141.3,196.6-233.3,349.6-233.3h0
		c48.3,41.5,99.6-15.8,63.7-43.6c4.4,3.3,16.2,28.6-5.1,42.1c5.2-10.6,7.2-23.1-1.8-28.3c4.3,33.9-31.7,37.3-46.2,17
		c22.1,1,39.4-20.9,8.4-34.1c15.9,26.2-28.4,17.1-35-0.8c-29.3-5-47.9-31.3-24.2-41.4c-20.6,2.1-19.9,15.6-15,31.4
		c-24.7-13.3-23.1-25.5-31.7-47.3c-16.1-40.7-55.8-22.7-72.1-9.2c27.2-11.3,46.5-10.3,56.6,2.1c7.3,9,6.2,27.1,13.5,36.1
		c-24.1-5.3-21.9-32.9-71.7-15c24.1-2.9,66.9,15.1,38.7,20.4c-13.2,2.1-38-16.5-62.3-21.3c-22.5-4.5-41.3,3.2-52.8,18.2
		c15.5-9.7,55.4-14.6,60.4-4.6c4.1,8.2-25.2-0.6-46.5,13.1c-28.8,18.4-50.4,29.6-54.1,10.5c-16.3,30,13.5,22.6,7.7,40
		c-7,20.9-47.7,28.2-73.3,65.7c-25.6,37.5,5,88.9-43.3,97.5C231.6,524.2,207.9,515.4,207.9,484.2z"/>
</g>
<g id="head-color">
	<linearGradient id="SVGID_3_" gradientUnits="userSpaceOnUse" x1="465.1532" y1="274.9782" x2="465.1532" y2="755.3947">
		<stop  offset="0.4" style="stop-color:#FFB1CB"/>
		<stop  offset="0.6" style="stop-color:#FF6FA0"/>
	</linearGradient>
	<path class="st7" d="M458,748.3c14.6-48.4,58.9-84.9,108.2-89.6c-30.7-45.1-79.6-73.6-75.3-164.2c3.6-12.7,11.2-23.6,19-30.4
		c1.3,34.2,24.4,46.9,50.2,65.6c0,43.8-6,54.3,4.3,64.6c12.2,11,35.1,11.6,45,11.3c2.3-0.1,4.4,0.7,6.3,2c1.8,1.2,4.5,1.1,6-0.8
		c0.9-1,1.3-3.1,0.4-4.1l-2.5-2.8c7.1-6.8,10.7-17.7,19.7-29.7c0.8-1.1,2.6-2.2,1.9-3.4l-13.3-21.7c-0.7-1.1-1-2.5-1-3.8l0.7-59.6
		l1.9-24c1.9-3.6,11.4-12,13-16.4l0-3.7c-0.1-0.5,0.3-0.9,0.8-0.8c2.2,0.1,4.3-0.6,6-1.8c1.2-0.8,1.8-2.2,1.7-3.6l-2.2-25
		c-0.1-1.1-0.8-2.2-1.9-2.6c-1.9-0.7-4.8-0.9-7.9-1c-0.9,0-1.6-0.8-1.7-1.7l-0.5-18.3c-0.2-9.3-3.8-18.3-10.3-24.9
		c-1.8-1.9-3.7-3.3-5.4-4.1c2.4-13.4,25.3-58.9,38.8-76.7c0.5-0.7-3.4,0.3-4.1,0.6c-10.2,4.5-47.6,25.8-66.9,52
		c-14.6-12.5-43.6-20.7-78.3-20.9c-22.5-0.1-48.3,2.5-71,11.7c-37.5,15.3-78.8,53.5-107.9,94.4l-14.9,33.6l-12.7,45.3l-34,150.2
		C348.9,668.5,414.2,703.6,458,748.3z"/>
</g>
<g id="ear">
	<linearGradient id="SVGID_4_" gradientUnits="userSpaceOnUse" x1="654.3776" y1="287.9574" x2="614.0813" y2="348.4018">
		<stop  offset="6.462800e-02" style="stop-color:#9FDBCC"/>
		<stop  offset="0.4757" style="stop-color:#9DDBCB"/>
		<stop  offset="0.6293" style="stop-color:#96D9C9"/>
		<stop  offset="0.7397" style="stop-color:#8AD7C4"/>
		<stop  offset="0.8294" style="stop-color:#79D4BD"/>
		<stop  offset="0.9057" style="stop-color:#63CFB4"/>
		<stop  offset="0.9235" style="stop-color:#5DCEB2"/>
	</linearGradient>
	<path class="st8" d="M651.6,285.1c2.5-2.4,3.7-1.4,2.8-0.1c-12.8,19.9-29.5,53.6-32.8,66.8c-0.2,0.7-0.9,3.4-1,3.9
		c-0.5-4.5-6.8-12.8-16.7-8.5C620,321.1,635.4,299.7,651.6,285.1z"/>
	<linearGradient id="SVGID_5_" gradientUnits="userSpaceOnUse" x1="653.4314" y1="286.49" x2="610.3203" y2="347.1566">
		<stop  offset="0.2889" style="stop-color:#79A79C"/>
		<stop  offset="0.4465" style="stop-color:#71A397"/>
		<stop  offset="0.6915" style="stop-color:#5B998A"/>
		<stop  offset="0.9235" style="stop-color:#408D79"/>
	</linearGradient>
	<path class="st9" d="M616.8,349.1c-2.9-2.6-7.3-4.2-12.9-1.8c16.1-26.1,31.6-47.6,47.8-62.2c2.5-2.4,3.7-1.4,2.8-0.1
		C631.9,310.3,619.2,331.8,616.8,349.1z"/>
</g>
<g id="head">
	<linearGradient id="SVGID_6_" gradientUnits="userSpaceOnUse" x1="542.3459" y1="462.942" x2="461.2374" y2="566.8279">
		<stop  offset="0.2023" style="stop-color:#AE6981"/>
		<stop  offset="0.5935" style="stop-color:#AD4C6D"/>
	</linearGradient>
	<path class="st10" d="M495.3,546.9c-2.8-15.1-5.3-32.1-4.3-52.4c3.6-12.7,11.2-23.6,19-30.4c1.3,34.2,24.4,46.9,50.2,65.6
		c0,12.3-0.5,22-0.9,29.8c1.7-21.4,10.8-36.4,7.8-39.7c-1.9-2.1-10.1-0.3-13.8-1.5s-9.5-10.2-9.5-10.2c5.1,0.3,10.9,0.5,18.8,0.2
		c4.3-0.2,8.5-1,12.5-2.6c9.4-3.9,15.8-11.6,18.5-23.7c0,0-5.9,10-20.1,13.6c-21.8,5.5-55.8,1.7-59.1-31.1
		c-1.9-18.7-1.9-34,1.7-42.1c5.2-11.9,19-13.1,19-13.1c-61.9,9.3-130.3,100-144,158.9c29.9-70,47-74.9,47.6-43
		c0.4,23.6-2.2,69.5,12.3,106.6c-4.2-81.8,10-108.3,19.3-108.9s8.3,42.3,37.6,77.3C507.8,600.1,502.2,585.2,495.3,546.9z"/>
	<path class="st11" d="M621.7,606.6c-1.6,1.9-4.3,2-6,0.8c-1.9-1.3-4-2-6.3-2c-9.9,0.3-32.8-0.3-45-11.3c-6.1-6-6.5-12.2-5.8-25.2
		c-1.9,26,20.9,26.7,31.2,27.6c5.7,0.5,14.2,0.3,18.3,1.3C613.2,599.2,616.4,607.5,621.7,606.6z"/>
	<path class="st11" d="M639.4,570.2c-9,11.9-13.2,23.3-20.3,30.1c-19.2-24.4-41.6-50.1-44.3-19c-2.1-13.8,0.4-23.6,8.3-28.4
		c0,0-6.7,3.7-2,9.1c4.2,4.8,10.6,2,36.2,27.6C624,596.1,632.8,575.4,639.4,570.2z"/>
	<path class="st12" d="M621.7,606.7c0.9-1,0.8-2.6-0.1-3.6l-2.5-2.8l-17.5-20.8l11.5,17.5C619.5,609.5,621.6,606.8,621.7,606.7z"/>
	<path class="st13" d="M621.2,353.6c1.7,0.8,3.6,2.3,5.4,4.1c6.5,6.6,10.1,15.6,10.3,24.9l0.5,18.3C622,387,635.2,371.2,621.2,353.6
		z"/>
	<path class="st13" d="M582.1,324.6c-15.9-9.7-41.5-15.8-71.4-16c-22.5-0.1-48.3,2.5-71,11.7c-37.5,15.3-78.8,53.5-107.9,94.4
		l-14.9,33.6c4.4-8.1,12.2-22.5,16.3-28.4c0.8-1.1,7.9-8.8,7.9-8.8s-4.2,6.1-8.2,14.3c-2.9,5.9-6.8,15.9-11.7,30.7
		c14.8-30.2,26.6-43.5,34.8-52.1c14.6-15.4,29.9-30.4,45.5-42.4c0,0-25.4,19.9-46.3,50.4c40-51.3,86.2-82.7,142.4-90.9
		C518.2,318.1,551,320.5,582.1,324.6z"/>
	<path class="st13" d="M320.5,458.9c0.5-0.5-5,12.9-5.6,18.2C314.8,477.1,314.5,465.4,320.5,458.9z"/>
	<path class="st13" d="M508.6,582.1c16.1,30.1,39.9,50.6,57.6,76.6c-5.4,0.5-10.7,1.4-15.9,2.6C542.4,640.8,525.2,616.9,508.6,582.1
		z"/>
	<path class="st14" d="M417.2,713.6c15.1,10.8,28.8,22.4,40.9,34.7c0.8-2.6,1.7-5.2,2.6-7.7c-64.2-112.5-39.7-201.2-39.7-201.2
		S392.7,599.9,417.2,713.6z"/>
	<path class="st14" d="M388.5,471c-9.2,10.4-30.7,38.2-51,81.6c-19.7,42.2-10.4,86.9-25.8,105.7c28.7,11.1,55.2,23.8,79,38
		C317.5,585.3,388.5,471,388.5,471z"/>
	<path class="st15" d="M432.9,519.6c-16.9,55-9.2,107,13.9,117.9C431.4,610.1,428.6,567.4,432.9,519.6z"/>
	<path class="st16" d="M429.6,424.3c20-34.2,56.2-49.2,108.4-45.1C493,382.3,456.6,397.1,429.6,424.3z"/>
	<path class="st13" d="M456,405.5c20.1-16.2,58.7-25.2,81.1-24.8c7.8,0.1,8.1,5.5,3.8,5.3C516.5,384.5,476,393.4,456,405.5z"/>
	<g>
		<path class="st13" d="M641,421.3c-1.3,0-2.6-1.6-2.7-2.9c-1.3-11.6,4.2-14.4,4.4-14.6c1.2-0.7,3-0.2,4.3,0.3
			c1.8,0.8,0,2.7-1.1,3.4c-0.2,0.2-3.2,2.8-2.3,10.9c0.1,1.4-0.8,2.6-2.2,2.8C641.2,421.3,641.1,421.3,641,421.3z"/>
	</g>
	<path class="st13" d="M618.3,420.2c0,0-15.5-31.1-24.6-33.4c-9.1-2.3-14.5,10.6-12.4,12.9c3.4,3.8,3.9-5.8,11-4.8
		C601.2,396.1,618.3,420.2,618.3,420.2z"/>
	<path class="st17" d="M581.1,421.3c-9.3,26.4,12.3,39.3,7.7,62.9C600.4,459.1,577.9,447.8,581.1,421.3z"/>
	<path class="st13" d="M602.1,474.1c-1.6,20.7-9.3,38.4,1.3,65.3C601.1,526.7,605.1,492.8,602.1,474.1z"/>
	<linearGradient id="SVGID_7_" gradientUnits="userSpaceOnUse" x1="608.5574" y1="419.4445" x2="616.8538" y2="528.4816">
		<stop  offset="0.2023" style="stop-color:#AE6981"/>
		<stop  offset="0.5935" style="stop-color:#AD4C6D"/>
	</linearGradient>
	<path class="st18" d="M636.8,437.2c2.2,5,1.8,10.2-3.4,15.7c-4,5.6-6.4,6.8-9.6,9.3c-21.9,17.1-10.7,28.6-19.6,64.2
		c0,0,1.4-16.6,1-33.1c-0.4-15.7-0.1-32-5-33.1c-4.6-1.2-7.1,5.9-7.1,5.9c-2.2-13.1-9.4-21.9-11.4-35.1
		c6.1,16.5,13.7,26.4,24.1,23.4c-5.1-18.1-10-36.4-23.9-44.9c29.8,1.1,20.1,26,34.2,33.8C626.5,449,635.2,448.1,636.8,437.2z"/>
	<path class="st11" d="M610.3,538.8c-0.1,4.3,17,16.5,17.8,28.1c-2.8,12.8-11.1,17.5-13.9,16.2c-1.7-0.8-3.4-2.6-3.2-5
		c1.7,1.1,5.3,1.3,7.2-0.7l-7-6.7c-0.2-0.2-0.4-0.4-0.6-0.6c-3.2-3.5-4.4-9-2.3-13.2C610.9,551.8,612.3,546.1,610.3,538.8z"/>
	<path class="st13" d="M628.1,545.1c-0.7-1.1-1-2.5-1-3.8l0.7-59.6l1.9-24c0.6-1.2,2-2.8,3.7-4.7l-6.4,5.6c-2.6,2.3-4.1,5.5-4.2,9
		c0.6,18.5,0.2,39.5-0.9,62c0,3.2,0.8,6.3,2.4,9L628.1,545.1z"/>
	<linearGradient id="SVGID_8_" gradientUnits="userSpaceOnUse" x1="624.1224" y1="458.0274" x2="633.3655" y2="458.0274">
		<stop  offset="0.2023" style="stop-color:#AE6981"/>
		<stop  offset="0.5935" style="stop-color:#AD4C6D"/>
	</linearGradient>
	<path class="st19" d="M629.3,463.1l0.4-5.5c0.6-1.2,2-2.8,3.7-4.7l-6.4,5.6c-1.2,1-2.1,2.2-2.8,3.5
		C625.5,461,627.2,462.3,629.3,463.1z"/>
</g>
<g id="horn-color">
	<linearGradient id="SVGID_9_" gradientUnits="userSpaceOnUse" x1="768.4259" y1="394.1756" x2="645.9814" y2="419.0645">
		<stop  offset="0.1998" style="stop-color:#AE8E65"/>
		<stop  offset="0.3179" style="stop-color:#AD895C"/>
		<stop  offset="0.7653" style="stop-color:#AA793E"/>
	</linearGradient>
	<path class="st20" d="M647.1,428.6c0.3,0,130.3-32,130.3-32l-132.3,12.8C643.4,414.8,644.4,421.4,647.1,428.6z"/>
	<path class="st21" d="M777.4,396.6l-132.3,12.8c-1.1,3.4-1.1,7.3-0.2,11.6L777.4,396.6z"/>
	<path class="st22" d="M777.4,396.6l-132.3,12.8c-0.6,2-0.9,4.2-0.8,6.5L777.4,396.6z"/>
	<path class="st23" d="M777.4,396.6l-133,15.9c-0.2,1.2-0.2,2.4-0.1,3.7L777.4,396.6z"/>
</g>
<g id="horn-line">
	<path d="M777.3,395.6l-130.6,12.6c0,0,0-0.1,0-0.1c0.3-0.5,0.1-1.1-0.4-1.4c-0.5-0.3-1.1-0.1-1.4,0.4c-0.3,0.5-0.6,1.2-0.9,1.9
		c0,0,0,0,0,0c-1.4,3.8-2,10.8,2.7,22.3c0.2,0.4,0.5,0.6,0.9,0.6c0,0,0,0,0,0c0.4,0,0.7-0.2,0.9-0.6c0.1-0.2,0.7-1.5,0.8-2.4
		c6.6-1.6,31.6-7.7,128.2-31.5c0.5-0.1,0.8-0.6,0.7-1.1C778.3,395.9,777.9,395.6,777.3,395.6z M712.8,411.5
		c-0.7-0.7-1.1-1.9-1.3-3.7c0,0-0.2,2.3,0.6,3.9c-4.6,1.1-9.1,2.2-13.6,3.3c-1.3-0.9-2.2-2.8-2.5-6.1c0,0-0.3,4.1,1.1,6.5
		c-4.8,1.2-9.4,2.3-13.9,3.4c-1.7-0.8-2.8-3-3.2-7c0,0-0.4,4.8,1.5,7.4c-4.4,1.1-8.6,2.1-12.4,3c-1.8-1-2.9-3.4-3.3-7.7
		c0,0-0.4,5.2,1.5,8.1c-4.6,1.1-8.7,2.1-11.9,2.9c-2-1.2-3.3-3.9-3.7-8.6c0,0-0.5,5.8,1.7,9.1c-2.9,0.7-5,1.2-5.9,1.4
		c-3-8.6-2.7-14-1.7-17.2l118-11.4C751.5,402,732.2,406.7,712.8,411.5z"/>
</g>
<g id="head-line">
	<g>
		<path d="M660.8,276.1c-0.9-1.2-5.3,0.4-5.4,0.5c-11.3,5-47.6,26.2-66.6,51.5c-15.5-12.7-44.6-20.3-78.2-20.5
			c-27.8-0.2-51.8,3.8-71.3,11.8c-35.6,14.5-77.1,50.8-108.4,94.8c0,0.1-0.1,0.1-0.1,0.2L316,447.9c0,0,0,0.1,0,0.1l-12.7,45.4
			l-34,150.2c-0.1,0.5,0.2,1,0.7,1.2c80.5,25.2,145.3,61.3,187.4,104.2c0.2,0.2,0.4,0.3,0.7,0.3c0.1,0,0.2,0,0.2,0
			c0.3-0.1,0.6-0.3,0.7-0.7c14.4-47.7,58.5-84.2,107.4-88.8c0.4,0,0.7-0.3,0.8-0.6c0.2-0.3,0.1-0.7-0.1-1
			c-7.2-10.6-15.6-20.5-23.7-30c-26.9-31.7-54.7-64.5-51.5-133.5c3-10.5,9.3-20.9,17.1-28.4c2,29.8,21,43.2,42.9,58.7
			c2.3,1.7,4.7,3.3,7.1,5.1c0,0.1,0.1,0.1,0.1,0.2c0,14.1-0.6,24.5-1.2,32.9c-1,17.4-1.5,24.6,5.8,31.8
			c12.5,11.3,36.1,11.8,45.7,11.5c1.9-0.1,3.9,0.6,5.7,1.8c2.3,1.6,5.6,1.2,7.4-1c1.2-1.4,1.7-4,0.4-5.4l-1.8-2.1
			c3.7-3.7,6.4-8.5,9.5-14c2.6-4.6,5.6-9.8,9.6-15.2c0.2-0.3,0.5-0.5,0.8-0.9c0.8-0.9,2.1-2.1,1.2-3.6l-13.3-21.7
			c-0.6-1-0.9-2.1-0.9-3.3l0.7-59.5l1.9-23.8c0.8-1.5,3-3.8,5.3-6.4c3.3-3.6,6.7-7.4,7.7-10c0-0.1,0.1-0.2,0.1-0.3l0-3.5
			c0.1,0,0.2,0,0.3,0c2.6,0,4.7-1,6.1-2c1.5-1,2.3-2.7,2.1-4.5c0,0,0-0.1,0-0.1l-0.6-3.4c-0.1-0.5-0.6-0.9-1.2-0.8
			c-0.5,0.1-0.9,0.6-0.8,1.2l0.6,3.3c0.1,1.1-0.4,2.1-1.3,2.6c-1.2,0.8-3.1,1.7-5.4,1.6c-0.4-0.1-0.8-0.2-1.3-0.3
			c-0.5-0.2-1-0.3-1.5-0.5c-1-0.4-2-0.9-2.9-1.5c0.7,0.8,1.5,1.6,2.4,2.4c0.4,0.4,0.9,0.7,1.4,1c0.1,0,0.1,0.1,0.2,0.1
			c-0.1,0.2-0.1,0.5-0.1,0.7l0,3.5c-0.7,1.7-2.7,4.2-4.9,6.7c0.3-1.3,0.6-2.8,0.7-4.7c0,0-0.5,1.6-1.6,3c-0.6,0.9-1.7,1.8-2.7,2.5
			c-1.4,1-2.2,1.9-3.3,1.8c-1,0-1.8-1.7-4-2.2c-3.8-1-9.6-0.4-13.1-4.1c-6.3-6.7-4.3-11.7-8.9-19.3c-4.5-7.5-8.6-12.4-19-14.1
			c0,0,7.2,2.6,9.7,6.3c2.6,11-5.5,19.2-1.9,28.8c2,5.3,8.1,7.3,12.4,8.4c-2.4,0.3-4.8,0.2-6.9-0.5c-1.5-0.5-2.8-1.2-4-2.1
			c-2.7-1.9-4.5-4.9-5.7-8.1c-1.1-3.3-1.6-6.8-1.9-10.4c-0.6,3-0.7,6.1-0.2,9.2c-0.1-0.3-0.3-0.7-0.4-1c-1.6-3.8-2.6-7.9-3.4-12.1
			c-0.3,4.2,0.3,8.6,1.6,12.7c1.3,4.1,3.1,8,4.6,11.8c1.6,3.8,2.7,7.8,3.4,11.9c0.7,4.1,0.9,8.3,1.2,12.5c0.7-4.2,1-8.5,0.6-12.8
			c-0.3-4.3-1.4-8.5-3-12.5c-0.2-0.4-0.3-0.8-0.5-1.2c1.9,2,4.2,3.5,6.9,4.3c1.7,0.5,3.5,0.8,5.4,0.8c2.2,0,4.6-0.4,6.9-1.1
			c0,0.1,0,0.2-0.1,0.2c-2,3.1-1.6,7.6-1.7,12.2c0,0.4,0,0.9-0.1,1.3c0,0-1.7,9.8-1.4,15.8c0.2,5.9,0.4,27.9,0.4,27.9
			s1.4-13,1.8-22.1c0.4-8.8-0.1-17.9,2.3-25.1c0.2-0.5,0.4-1,0.6-1.4c4.7-7.3,15-8.3,17.8-7.9c-0.1,0.1-0.2,0.3-0.3,0.4
			c-0.1,0.1-0.1,0.2-0.1,0.4l-1.9,24.1l-0.7,58.6c-0.5-0.8-1-1.7-1.5-2.5c-0.7-1.2-1.3-2.4-1.8-3.6c-0.5-1.3-0.9-2.6-1-3.9
			c-0.1,1.4,0.1,2.8,0.5,4.1c0.4,1.3,0.8,2.6,1.3,3.9c0.9,2.2,1.9,4.3,3,6.4c0.1,0.3,0.3,0.7,0.5,1c0,0,0,0,0,0c0,0,0,0,0,0
			c0,0,0,0,0,0l0,0c0,0,0,0,0,0.1c0,0,0,0,0,0l13.2,21.6c0,0.2-0.6,0.9-0.9,1.2c-0.3,0.3-0.7,0.7-1,1.1c-4.1,5.4-7.1,10.7-9.8,15.3
			c-2.9,5.1-5.5,9.6-8.8,13.1c-9.7-12.9-22.9-25.2-40.2-37.3c0.4-1.4,0.7-2.4,0.7-2.8c0-0.2-0.2-0.3-0.3-0.1
			c-0.5,0.4-1.9,1.8-2.5,2.7c-0.1,0.1-0.1,0.1-0.2,0.1c-0.1,0.1-0.2,0.3-0.2,0.5c-0.8,1.7-1.9,5.8-2.4,9.5c-0.6,4.2,0,12.6,0,12.6
			c-0.1-6.5,2.5-14.7,4.1-20.1c17.3,12.2,30.3,24.4,39.8,37.3c0,0,0,0,0.1,0.1c0,0,0,0,0,0l2.5,2.8c0.4,0.5,0.2,2-0.5,2.7
			c-1.3,1.5-3.4,1.5-4.7,0.6c-2.2-1.5-4.6-2.2-6.9-2.1c-9.3,0.3-32.3-0.2-44.2-11c-6.6-6.5-6.2-13.5-5.2-30.2
			c0.5-8.4,1.1-18.7,1.2-32.6l2.8,0.2l-3.1-1.9c0,0-0.1-0.1-0.1-0.1c-2.6-1.9-5.1-3.7-7.6-5.5c-22.9-16.2-41-29-42.2-59.3
			c0-0.1,0-0.2-0.1-0.3c-3.4-36.7-6.1-46.8,14-50.9c0,0,13-3,18.6-3.2c-2.5-0.3-11.3-1-25.9,2.5c0,0,6.6-9.9,22.3-15
			c0,0-3.7,0.2-8.4,2.4c-1.8,0.8-4.6,1.5-6.7,2.8c-3.9,2.4-7.5,5.7-11.3,11.1c-9.7,3.9-19.9,11.1-30.1,18.9
			c-8.7,6.6-17.4,13.4-24.7,20.6c-12.6,12.3-22.7,26.3-31.9,39.6c-8.8,12.6-16.8,24.4-22.4,35.5c-8.7,17.1-13.3,31.9-13.4,41.3
			c1.9-7.8,4.1-11.5,6-17.4c2.8-8.6,6.7-17.6,11.3-26.1c4.9-9.2,11.3-18,17.3-26.9c5.7-8.5,11.7-16.9,18.1-25.2
			c-2.5,13.3-4.3,26.7-5.5,39.9c-1.3,14.7-0.3,29.2,0,42.8c0.4,17.7,0.6,33.9,3.4,47.6c2.4,12,5.7,21.9,9.6,29.1
			c-5.6-15.5-3.8-14.9-5.7-22.5c-4.8-19.1-4.9-46.7-5.3-75.6c-0.4-25.8,3-41.2,5-55.8c0.5-3.7,1.1-7,1.7-9.9c0,0,17.3-20.4,25-24.1
			c5.5-1.3,12.8,1.9,13.8,4.3c-5.2,13.2-8.5,25.9-10.4,38.2c-2.5,15.9-4.9,34.2-2.3,46.2c1.5-14.8,5.1-28.1,10.2-41.9
			c1.8-5.1,3.4-10.6,5.6-15.9c1.2-3,3-7,4.9-10.4c0.2-0.4,0.5-0.2,0.4,0.3c-1.9,7.3-3.1,17.4-4,28.7c0,0.1,0,0.1,0,0.2
			c-3.3,69.8,24.8,102.9,52,135c7.7,9.1,15.7,18.5,22.6,28.5c-23.8,2.6-46.6,12.4-66,28.4c-19.4,16.1-33.6,36.8-40.9,60.1
			c-42.2-42.5-106.5-78.1-186.1-103.2l33.8-149.3l12.6-45.3l14.8-33.4c31-43.7,72.2-79.7,107.4-94c19.3-7.9,43.1-11.8,70.6-11.6
			c33.2,0.2,62,7.7,77.1,20.2c-0.6,1.3-1.2,2.6-1.8,3.9c-0.3,0.8-0.7,1.6-1,2.4c-0.3,0.8-0.6,1.6-0.8,2.4c0.3-0.8,0.8-1.5,1.3-2.2
			c0.5-0.7,0.9-1.4,1.4-2.1c0.9-1.3,1.9-2.7,2.9-4c0,0,0,0,0,0c0,0,0,0,0,0c0,0,0,0,0,0c0,0,0,0,0,0c18.6-25.3,55.2-46.8,66.5-51.7
			c0.1-0.1,0.4-0.1,0.7-0.2c-0.5,0.5-1,1.1-1.7,1.8c-1.5,1.6-3.3,3.4-4.3,4.4c-14.6,13.2-29.9,33.1-48,62.4c0,0,0,0,0,0c0,0,0,0,0,0
			l0,0l0,0c-0.1,0.1-0.1,0.3-0.2,0.4c-0.1,0.1-0.2,0.3-0.2,0.4c-1.3,2.5-2.5,5.1-3.6,7.7c-1.2,2.9-2.4,5.8-3.6,8.7
			c1.5-2.8,3-5.5,4.5-8.3c1.4-2.4,2.8-4.8,4.3-7.1c8.4-3.9,11.3,0,15.7,7.4c0,0.1,0.1,0.1,0.1,0.2l-0.8,9.6l2.6-10.7
			c1.3,0.8,2.7,1.9,4.1,3.4c6.2,6.3,9.8,14.9,10,24.2l0.4,17.2c-0.3-0.3-0.5-0.5-0.8-0.8c-1-1.1-2-2.3-2.8-3.6
			c0.5,1.5,1.2,2.8,1.9,4.2c0.4,0.7,0.8,1.3,1.3,2c0.2,0.3,0.5,0.6,0.8,1c0.2,0.2,0.3,0.3,0.6,0.5l0.4,0.2c0,0,0,0,0.1,0
			c0.4,0.2,0.8,0.3,1.2,0.3c3.3,0.1,5.9,0.3,7.6,0.9c0.7,0.3,1.2,0.9,1.3,1.7l0.2,2.8c0,0.5,0.5,0.9,1,0.9c0,0,0,0,0.1,0
			c0.6,0,1-0.5,0.9-1.1l-0.2-2.8c-0.1-1.5-1.1-2.9-2.5-3.4c-2-0.8-4.8-0.9-8.3-1.1c-0.1,0-0.1,0-0.2,0c-0.1,0-0.1-0.1-0.2-0.1
			c-0.2-0.1-0.3-0.3-0.3-0.6l-0.5-18.3c-0.2-9.8-4-18.9-10.6-25.6c-1.8-1.8-3.5-3.1-5-4c3-14,25.5-58.4,38.4-75.6
			C661.1,277.1,661.1,276.5,660.8,276.1z M606,345.7c17.4-28.1,32.2-47.2,46.3-60c0.3-0.3,0.7-0.7,1.1-1.1
			c-13.3,20.7-30.6,55.8-33.1,68.2C617.1,347.7,613.5,343.4,606,345.7z"/>
		<path d="M586,391.1c0.2-0.2,0.4-0.5,0.7-0.7l0.7-0.6c0.2-0.2,0.5-0.4,0.8-0.5c0.3-0.2,0.5-0.3,0.8-0.5c0.6-0.2,1.1-0.5,1.7-0.6
			c1.1-0.3,2.3-0.3,3.4,0c1.1,0.3,2.2,0.9,3.2,1.6c2,1.4,3.7,3.4,5.2,5.4c1.6,2,3,4.2,4.4,6.5c1.4,2.2,2.6,4.5,3.9,6.8l7.5,14
			c-1.7-5.1-3.6-10-5.9-14.8c-2.3-4.8-4.8-9.5-8.1-13.9c-1.7-2.1-3.5-4.2-5.8-5.8c-1.2-0.8-2.5-1.4-4-1.8c-1.4-0.4-3-0.3-4.4,0.2
			c-0.7,0.2-1.3,0.6-2,0.9c-0.3,0.2-0.6,0.4-0.9,0.6c-0.3,0.2-0.6,0.4-0.8,0.7l-0.8,0.7c-0.2,0.2-0.5,0.5-0.7,0.8
			c-0.5,0.5-0.9,1.1-1.2,1.6c-1.5,2.3-2.7,4.7-3.6,7.2c1.4-2.2,2.9-4.5,4.6-6.4C585.1,392,585.5,391.5,586,391.1z"/>
		<path d="M573.7,504.2c5.1-1.4,8.1-7.2,8.1-7.2c-6.4,5.2-16.5,8.3-30.6,8.4C551.2,505.4,568.9,505.5,573.7,504.2z"/>
		<path d="M608.3,565.6c0.5,3.4,4,7.2,8.9,10.6c0.2,0.1,0.2,0.5,0.1,0.6c-0.7,0.7-1.4,1.5-1.4,2c0,0,9.1-3.8,9.4-11.8
			c0.2-3.9-5.3-9.4-8.8-15.5c-0.9-1.5-1.4-3.2-2.1-4.6c-2.3-4.7-3.8-8.2-3.8-8.2c0,4.8,1.6,9.2,4,13.7c0.1,0.2,0.1,0.5,0,0.7
			C611,557.7,607.6,561.6,608.3,565.6z"/>
		<path d="M544.4,409.5c-0.3,0-0.6,0-1,0c0.5,0.1,0.8,0.1,0.8,0.1L544.4,409.5z"/>
	</g>
</g>
<g id="hair-line">
	<g>
		<path d="M687.7,322.1c-0.4-0.2-0.8-0.1-1.1,0.3s-0.3,0.8-0.1,1.1c0.8,1.5,2.6,5.6,1.2,7.6c-1.4,2.1-3.9,3.2-6.2,2.7
			c-3.2-0.7-5.5-4.1-6.4-9.6c-2-11.7,3-18.9,8.4-21.8c5.7-3,12.5-1.9,17.8,3.1c0.3,0.3,0.8,0.4,1.2,0.1c0.4-0.2,0.6-0.7,0.5-1.1
			c-1.6-7-4.4-11.5-8.7-13.9c-7.2-4-16.9-0.7-25.6,2.2c-5.8,2-11.4,3.8-15.1,3.2c-1.8-0.4-3.4-0.9-4.8-1.4c-0.5-0.2-1.1,0.1-1.3,0.6
			s0.1,1.1,0.6,1.3c1.5,0.6,3.3,1.1,5.2,1.5c4.3,0.7,10.1-1.2,16.2-3.3c8.2-2.8,17.5-5.9,23.9-2.3c3.1,1.7,5.4,4.9,6.9,9.6
			c-5.5-3.8-12-4.4-17.6-1.4c-6,3.2-11.6,11.1-9.4,23.9c1.5,8.6,5.6,10.7,7.9,11.2c3.1,0.7,6.5-0.7,8.3-3.5c1.4-2.1,0.7-5.1-0.1-7.3
			c13.1,6.1,20.5,15.5,20.8,26.7c0.4,12.4-8.1,24.9-21.2,31.1c-16.6,8-35.7,4.3-52.6-10c-0.4-0.4-1.1-0.3-1.4,0.1
			c-0.4,0.4-0.3,1.1,0.1,1.4c11.4,9.7,23.8,14.6,35.8,14.6c6.5,0,12.9-1.4,18.9-4.3c13.7-6.6,22.7-19.9,22.3-33
			C711.7,338.8,703,328.4,687.7,322.1z"/>
		<path d="M636,285.8c0.4,0.6,0.8,1.3,1.2,2c0.3,0.5,0.9,0.6,1.4,0.3c0.5-0.3,0.6-0.9,0.3-1.4c-0.4-0.6-0.8-1.3-1.2-1.9
			c-2.5-4.2-5-8.2-12.7-9.3c-4.6-0.7-9.9-0.6-15.5-0.5c-11.6,0.2-23.5,0.4-29.7-6.2c-3.2-3.4-4.6-8.3-4.3-15.1
			c3.5,1.6,13.2,5.6,21.4,4.6c6.1-0.7,10.9-3.4,13.5-7.4c2.8-4.4,3.1-10.2,0.9-17.3c-2-6.5-7.1-11.3-14.4-13.5
			c-9.9-3.1-22.2-1-29.9,4.9c-8.3,6.5-9.2,18.5-9.2,23.8c-6.4-6-28.6-24.6-60.3-24.6c-0.1,0-0.2,0-0.2,0
			c-21.8,0.1-32.6,9.2-42.2,17.2c-6.9,5.8-12.9,10.9-21.9,11c-12.9,0.3-20.1-5.9-21.3-11.7c-1.1-5.3,2.4-10.2,9.1-12.9
			c0.4-0.2,0.6-0.6,0.6-1c0-0.4-0.3-0.8-0.7-0.9c-20.6-5.7-30.5,3.6-34.5,9.6c-7.3,10.9-6.9,27.7,0.9,38.6
			c-10.2,6-18.5,2.1-22.9-3.7c-4.7-6.2-5.9-15.8,0.2-21.2c0.3-0.3,0.4-0.7,0.3-1.1s-0.5-0.6-0.9-0.6c-14.4,0.2-64.4,15.3-74.8,48.5
			c-7.5,23.9,0.1,34.7,7.5,45.1c3.3,4.6,6.4,8.9,8.3,14.4c3.1,8.8,2.6,17.1-1.4,22.6c-2.9,4-7.4,6.3-13,6.7
			c4.4-9.7,3.8-19.4-1.7-26.7c-4.9-6.5-13-9.9-20.6-8.5c-5.3,0.9-14.8,4.9-19.6,21c-3.6,13.7-1.2,24.5,7.8,34
			c2.5,2.7,5.6,5.3,9.5,8.1c8.1,5.9,13.1,17.8,12.4,29.7c-0.6,10.5-5.5,18.9-13.9,23.6c-10.7,6-19,7.3-24.8,3.8
			c-9.7-5.9-9.2-23.4-9.2-23.6c0-0.4-0.2-0.8-0.6-0.9c-0.4-0.2-0.8-0.1-1.1,0.2c-6.1,5.6-20.3,20.7-22,38.7
			c-2.3,25.5,7.5,37.4,18,45.6c2.6,3,5.1,4.2,6.6,4.7c0.4,0.3,0.8,0.5,1.2,0.8c8.3,5.6,14.9,10,14.4,18.7
			c-0.5,8.8-4.4,15.5-10.7,18.4c-4.7,2.2-9.9,1.7-13.7-1.1c-7.7-5.9-4.9-15.3-4.8-15.6c0.1-0.4,0-0.9-0.5-1.2
			c-0.4-0.2-0.9-0.2-1.2,0.2c-9.8,10.6-14.3,24.2-12.2,37.4c1.8,11.6,8.4,21.6,17.8,27c8.7,5,21.6,2.6,33-0.4c3-0.6,5.2-0.2,6.7,1
			c2.9,2.4,3.2,7.8,3.4,13c0.2,6,0.5,11.8,5.2,12.4c0,0,0.1,0,0.1,0c0.5,0,0.9-0.4,1-0.9c0.1-0.5-0.3-1.1-0.8-1.1
			c-2.8-0.4-3.2-4.3-3.4-10.5c-0.2-5.4-0.5-11.6-4.1-14.5c-2-1.6-4.7-2.1-8.4-1.4c-11.1,2.9-23.5,5.3-31.6,0.7
			c-8.8-5-15.1-14.6-16.8-25.5c-1.8-11.5,1.7-23.4,9.5-33.1c-0.3,3.8,0.4,9.9,6.1,14.2c4.3,3.3,10.3,3.8,15.7,1.3
			c7-3.2,11.3-10.5,11.9-20.1c0.5-9-5.5-13.9-13-18.9c12.9,0.4,20.4-13.1,20.4-13.1c-4.7,6.6-15.1,14.7-25.2,9.9
			c-11.8-8-25.1-18.9-22.5-47.5c1.4-15.8,13.2-29.4,19.7-35.8c0.2,5.3,1.6,17.8,10.1,23c6.5,3.9,15.5,2.7,26.8-3.7
			c9-5,14.3-14,14.9-25.3c0.7-11.5-3.8-23.2-11.3-29.8c8.9,1.7,21.1-1.1,22.7-8.2c-1.6,5.8-20.9,9.2-30.1,2.4
			c-1.4-1.2-2.7-2.4-3.8-3.6c-8.5-9.1-10.8-19-7.3-32.1c3.3-11.2,9.8-18.1,18.1-19.6c6.9-1.2,14.2,1.8,18.6,7.8
			c5.1,6.9,5.5,16,1.3,25.2c-6.3,0.3-15.4-2.6-19.4-7.6c-1.8-2.3-2.3-4.8-1.5-7.4c2.8-4.7,6.3-7.2,9-6.7c2.1,0.4,3.7,2.7,4.4,6.4
			c0,0,0,0,0,0c1,3.5,1.2,7.4,1,11.3c1-3.7,1.7-7.6,1.4-11.7c0,0,0,0,0,0c0,0,0,0,0,0c0-0.1,0-0.2,0-0.2c0,0,0,0,0,0
			c-0.9-4.5-3.2-7.5-6.3-8c-3.8-0.7-8.1,2.3-11.5,8c0,0.1-0.1,0.1-0.1,0.2c-1.2,3.4-0.6,6.8,1.8,9.8c4.3,5.4,13.4,8.5,20.3,8.5
			c0.4,0,0.8,0,1.2-0.1c0.1,0,0.1,0,0.2,0c0,0,0.1,0,0.1,0c7,0,12.6-2.6,16.1-7.5c4.3-6.1,4.9-15,1.6-24.5c-2-5.7-5.3-10.4-8.5-14.9
			c-7.5-10.5-14.5-20.4-7.3-43.4c9.5-30.1,54.2-45.2,70.5-46.9c-4.9,6.3-3.4,15.8,1.4,22c4.9,6.4,14.8,11.2,26.5,3.6
			c0.2-0.2,0.4-0.4,0.4-0.7c0-0.3,0-0.6-0.2-0.8c-7.9-10.3-8.6-26.6-1.5-37.2c6-9,16.5-12.3,29.6-9.5c-5.9,3.3-8.8,8.4-7.7,13.9
			c1.4,6.6,9.2,13.6,23.3,13.3c9.6-0.2,16.2-5.7,23.1-11.5c9.3-7.8,19.8-16.6,40.9-16.7c0.1,0,0.2,0,0.2,0
			c35.2,0,58.5,23.5,60.5,25.6c2,2.6,3.5,5.5,4.4,8.5c0,0,0,0,0,0c1.2,2.6,1.6,5.6,1.8,8.6c0.6-3,1-6,0.5-9.3c0,0,0,0,0,0
			c0,0,0,0,0,0l0,0c0-0.1,0-0.2-0.1-0.3c0,0,0,0,0,0c-1-3.2-2.6-6.3-4.7-9c-0.2-3.7-0.1-17.2,8.3-23.7c7.1-5.5,18.9-7.5,28.1-4.6
			c4.7,1.5,10.7,4.8,13,12.2c2,6.5,1.8,11.8-0.7,15.6c-2.3,3.5-6.6,5.9-12,6.5c-7.9,1-17.5-3.1-20.6-4.5c0.4-5.4,2.4-10,5.6-12.8
			c2.7-2.3,6.1-3.4,9.8-3.2c4.4,0.3,6.7,3.3,6.8,6c0.1,2.1-1.3,4.5-5.3,5c0,0,0,0,0,0c-0.7,0.1-1.4,0.3-2,0.3
			c-0.7,0.1-1.4,0.1-2.1,0c-0.7-0.1-1.4-0.3-2-0.6c-0.6-0.4-1.1-0.9-1.3-1.6c0,0.8,0.4,1.5,1,2.1c0.6,0.6,1.3,1,2.1,1.3
			c0.8,0.3,1.6,0.5,2.3,0.6c0.8,0.1,1.6,0.2,2.4,0.2c0.1,0,0.2,0,0.3,0c0,0,0.1,0,0.1,0c5.3-0.8,7.1-4.5,7-7.4
			c-0.1-3.8-3.2-7.9-9-8.3c-4.4-0.3-8.4,1-11.6,3.7c-3.8,3.3-6,8.5-6.4,14.7c0,0.1,0,0.1,0,0.2c-0.6,8.1,0.9,14,4.7,18.1
			c6.8,7.2,19.2,7,31.2,6.8c5.6-0.1,10.8-0.2,15.2,0.5C631.6,278.5,633.6,281.9,636,285.8z"/>
		<path d="M289.3,555c-4,2.1-13.1,17.4-17.4,31.5c-4.1,13.3-17.3,25.3-37.5,21.9c0,0,0,0,0,0c-3.9-0.3-7.9-1.5-11.8-2.6
			c3.6,1.9,7.2,3.9,11.3,5c0,0,0,0,0,0c0,0,0,0,0,0c0.1,0,0.1,0,0.2,0c0,0,0,0,0,0c2.4,0.4,4.8,0.6,7,0.6c17.5,0,29.1-11.5,33-24.1
			c4.6-14.8,13.4-28.6,16.2-30.1c0.6-0.3,0.8-1,0.5-1.6C290.6,554.9,289.9,554.7,289.3,555z"/>
		<path d="M279.6,524.9c1.6-2.6,2.8-5.6,4.3-8.6c1.4-2.8,3-5.5,4.2-8.5c-1.7,3.2-3.6,6-5.3,8.8c-2.1,3.3-4.1,6.5-6.2,9.3
			c-7.3,9.3-15,15-23.5,15.4C263.4,543.3,272.4,536.1,279.6,524.9z"/>
		<path d="M364.1,369.4l-0.1,0.1c-32.8,18.8-56.5,49.6-72.4,94.4l0,0l-2.5,11.3l4.8-10.5l0,0c15.7-44.2,39-74.6,71.2-93.1
			c2.7-1.2,4.7-1.9,6-1.9l0-2.4C369.4,367.4,367.2,368,364.1,369.4z"/>
		<path d="M483.5,295.9c-7.6-3.6-15.5-7.3-22.8-9.3c-4.5-1.2-14.3-1.8-25-1.5c-9.4,0.2-16.4,1.3-21.5,3.2l0,0
			c-1.7,0.8-3.3,1.8-4.7,3.1c-1.4,1.2-2.6,2.8-3.3,4.5c1-1.5,2.4-2.6,3.9-3.5c1.5-0.8,3.2-1.4,4.9-1.8l0,0c4.9-1.8,11.7-2.8,20.8-3
			c10.3-0.3,20.1,0.3,24.3,1.4c7.2,1.9,14.9,5.5,22.4,9.1c4,1.9,7.9,3.7,11.4,5.2c1.6,0.6,2.8,1.2,3.8,1.7
			c-12.6-3.1-38.4-5.3-52.9-3.1c-10.6,1.5-24.4,6.6-37.8,14c-3.5,1.9-7,4-10.3,6c-7.8,4.6-15.1,9-21.5,10.3v0
			c-1.7,0.4-3.5,0.7-5.2,0.8c-1.8,0-3.5-0.2-5.1-0.9c-1.6-0.7-3.1-1.8-4.2-3.2c-1.2-1.4-2.1-3-2.8-4.7c0.5,1.8,1.2,3.5,2.3,5.1
			c1,1.6,2.5,3,4.2,3.9c1.7,1,3.7,1.5,5.6,1.6c1.9,0.2,3.9,0.1,5.8-0.2c6.7-1.3,14.3-5.8,22.2-10.6c3.3-2,6.7-4,10.2-5.9
			c13.3-7.2,26.8-12.2,37-13.7c19.3-2.8,55.3,2.2,57.7,5.1l1.3-1.1c0.6,0.2,1.4,0.3,2.3,0.5l10.7-0.9c-5.4-0.8-14.2-3.4-22.4-6.8
			C491.3,299.6,487.5,297.8,483.5,295.9z"/>
		<path d="M554.5,312.4l-2.2-0.7l-1.1-0.4l-0.5-0.2c-0.1,0-0.2-0.1-0.3-0.1l0,0c-4.7-2.3-9.4-6.2-14.3-10.4
			c-11-9.4-24.8-21.1-47.6-20.1v0c-3.1,0.5-6.2,1.3-9.2,2.3c3.1-0.2,6.2-0.1,9.3,0.1v0c21.9-1,34.7,9.9,46,19.5
			c5,4.3,9.8,8.3,14.8,10.7l0,0l0,0c0.5,0.2,0.6,0.1,0.8,0.2l0.6,0.1l1.2,0.1l2.3,0.1l2.3,0.1c0.8,0.1,1.5,0.1,2.3,0.2
			c-0.7-0.3-1.4-0.5-2.2-0.8L554.5,312.4z"/>
		<path d="M549.2,278.7c-0.4-1.4-0.8-2.8-1.3-4.3c-2.5-8.2-6.8-19.7-16.2-24.1c-16.6-7.8-31.4-4.7-41-0.6l0.1,0.2l-0.1-0.2
			c-1.8,1-3.6,2.1-5.3,3.2c-1.7,1.2-3.3,2.4-4.8,3.8c1.7-1.1,3.5-2,5.4-2.8c1.8-0.8,3.7-1.5,5.6-2.1l0,0c9.1-3.8,23.2-6.8,39,0.6
			c8.5,4,12.6,14.8,14.9,22.6c0.4,1.4,0.8,2.8,1.3,4.3c3.2,11,6.2,21.4,12.4,27.6c11.5,11.7,28.5,22.9,28.7,23l1.3-2
			c-0.2-0.1-17-11.3-28.3-22.7C555.3,299.5,552.4,289.4,549.2,278.7z"/>
		<path d="M585.8,291.2L585.8,291.2L585.8,291.2c0.4-1.2,0.9-2.4,1.7-3.4c0.8-1,1.9-1.9,3.1-2.4c-1.4,0.1-2.8,0.6-3.9,1.5
			c-1.2,0.8-2.2,1.9-3.1,3.2v0l0,0c-3.5,6.8-3.6,20.1,6.3,36.7l2.1-1.2C582.6,309.8,582.8,297.2,585.8,291.2z"/>
		<path d="M643.1,370.9c5.6,4.7,11.4,7.5,25.1,8.2c0.4,0,0.8,0,1.2,0c6.2,0,11.7-2.6,15.7-7.3c3.9-4.7,5.6-10.7,4.5-15.8l0,0
			c-0.6-1.7-1.5-3.2-2.7-4.4c-1.2-1.2-2.7-2.1-4.2-2.5c1.4,0.9,2.5,2,3.3,3.3c0.8,1.3,1.2,2.7,1.3,4.2l0.1,0l-0.1,0
			c1,4.3-0.6,9.7-4,13.8c-3.7,4.4-9,6.7-14.9,6.4c-13-0.7-18.5-3.3-23.7-7.6c-3.1-2.6-5.2-5-7.1-7.2c-1.2-1.3-2.3-2.6-3.5-3.7
			c6.3,2,11.8,2.8,16.6,2.8c9.4,0,15.7-3.4,19-7.9c4.4-6,3.7-14.2-1.7-19.8l0,0c-3.4-3-7.7-4.4-11.8-4.8c4,1.1,7.7,3.3,10.1,6.4l0,0
			c4.5,4.8,5.1,11.7,1.5,16.7c-5.3,7.3-19.6,11.1-43.8-0.1c-0.6-0.3-1.3,0-1.6,0.6c-0.3,0.6,0,1.3,0.6,1.6c0.5,0.2,1,0.5,1.6,0.7
			l-0.2,0.9c5.7,1.5,8.2,4.3,11.6,8.2C637.7,365.7,639.9,368.3,643.1,370.9z"/>
	</g>
</g>
<g id="eye">
	<path class="st24" d="M597.3,423.5c-0.3,3-1,6.4-1.7,8.4c-6.4,18.9,9.2,22.1,16.7,17.5c-0.5-1.1-1-2.2-1.5-3.4
		c-0.9-1.9-2.8-3.9-3.7-5.8c-1.1-2.3-1.5-4.8-2.6-6.9C601.9,428.8,599.6,425.4,597.3,423.5z"/>
</g>
<g id="eye-glow">
	<g class="st25">
		<path class="st26" d="M612.7,452.6c0.5-0.9,1-3.2,0.1-4.5c-1.2-1.7-0.8-4.5-1.5-6.2c-1-2-3.7-3.2-4.3-5.2
			c-0.7-2.1,0.4-4.9-0.6-6.8c-1.2-2.3-1.7-4.9-2.9-6.8c-1.4-2.2-4.1-3.4-5.5-5.1c0,0-0.1-0.1-0.1-0.1c-2-2.5-12.9-8.9-13.4-5.7
			c0,0.3,5.8,1.8,6.8,8.2c0.4,2.8,0,5.8-0.6,7.7c-0.9,2.5,0,5.1-0.4,7.3c-0.5,2.7-3.4,4.6-3.4,6.9c0,2.7-1.4,5.8-0.7,8
			c0.8,2.5,4.6,3.6,6.2,5.3c1.7,1.9,3.7,2.8,6,3.8c2.2,1,4.4,1.2,6.9,1.4c1.9,0.1,3.9-3.9,4.4-4.9L612.7,452.6z M595.4,431.9
			c0.7-2.1,2.3-4.8,2.6-7.8c1.3,1.1,0.9,2.9,2.2,4.9c1,1.5,4,2.1,5,4.1c1.1,2.1-0.2,5.4,0.9,7.7c0.9,1.9,2,4.2,2.9,6.2
			c0.5,1.1,2.5,1.3,3,2.5c-1.8,1.1-3.9,0.5-6.2,0.6c-2.2,0.1-4.2,0.6-6.2-0.5c-1.9-1-4.5-1.9-5.4-4.1c-0.7-1.8-2.6-4.5-2.4-7.1
			C592,436.4,594.6,434.4,595.4,431.9z"/>
	</g>
</g>
</svg>
